<svg width="1901" height="172" viewBox="0 0 1901 172" fill="none" xmlns="http://www.w3.org/2000/svg">
<path d="M46.9785 170.732C46.3275 170.081 46.002 168.861 46.002 167.07C46.002 164.792 46.3275 163.652 46.9785 163.652C48.4434 163.652 50.3965 163.49 52.8379 163.164C55.2793 162.676 57.5579 162.025 59.6738 161.211C61.7897 160.397 63.0104 159.583 63.3359 158.77C63.987 156.491 64.3939 153.561 64.5566 149.98C64.8822 146.4 65.0449 142.087 65.0449 137.041V48.6621C65.0449 34.502 64.3125 26.1198 62.8477 23.5156C61.7083 21.0742 52.9193 19.8535 36.4805 19.8535C30.2956 19.8535 25.4941 20.4232 22.0762 21.5625C18.6582 22.5391 16.054 24.5736 14.2637 27.666C12.4733 30.7585 10.7643 35.3971 9.13672 41.582C8.8112 42.3958 7.9974 42.8027 6.69531 42.8027C3.92839 42.8027 1.97526 42.2331 0.835938 41.0938L5.47461 6.18164C9.05534 6.99544 12.2292 7.64648 14.9961 8.13477C17.763 8.62305 20.2044 8.86719 22.3203 8.86719C34.0391 8.86719 44.3743 9.02995 53.3262 9.35547C62.278 9.68099 69.765 9.84375 75.7871 9.84375C88.3197 9.84375 99.0618 9.68099 108.014 9.35547C117.128 9.02995 124.29 8.86719 129.498 8.86719C131.614 8.86719 134.055 8.62305 136.822 8.13477C139.589 7.64648 142.763 6.99544 146.344 6.18164L150.982 41.0938C149.843 42.2331 147.89 42.8027 145.123 42.8027C143.821 42.8027 143.007 42.3958 142.682 41.582C141.217 35.3971 139.508 30.7585 137.555 27.666C135.764 24.5736 133.16 22.5391 129.742 21.5625C126.324 20.4232 121.523 19.8535 115.338 19.8535C98.248 19.8535 89.2962 21.0742 88.4824 23.5156C87.0176 28.5612 86.2852 36.6992 86.2852 47.9297V136.064C86.2852 145.505 87.0176 153.073 88.4824 158.77C88.8079 159.421 90.0286 160.153 92.1445 160.967C94.2604 161.781 96.5391 162.432 98.9805 162.92C101.422 163.408 103.131 163.652 104.107 163.652C104.758 163.652 105.084 164.873 105.084 167.314C105.084 168.291 104.921 169.43 104.596 170.732C96.4577 170.407 90.0286 170.163 85.3086 170C80.5885 169.674 77.5775 169.512 76.2754 169.512L46.9785 170.732ZM162.701 170.732C162.05 170.081 161.725 168.698 161.725 166.582C161.725 164.629 162.05 163.652 162.701 163.652C164.003 163.652 165.794 163.408 168.072 162.92C170.351 162.432 172.467 161.781 174.42 160.967C176.373 160.153 177.431 159.421 177.594 158.77C178.733 154.375 179.303 148.76 179.303 141.924V35.9668C179.303 30.4329 178.814 25.2246 177.838 20.3418C177.187 17.7376 173.036 16.4355 165.387 16.4355H163.189C162.213 16.4355 161.725 15.5404 161.725 13.75C161.725 11.1458 162.213 9.84375 163.189 9.84375C171.49 9.02995 178.489 7.72786 184.186 5.9375C189.882 3.98438 193.788 2.43815 195.904 1.29883L197.125 0.566406H197.613C198.264 0.566406 198.915 1.05469 199.566 2.03125C200.217 2.84505 200.624 3.65885 200.787 4.47266C198.997 9.84375 198.102 16.9238 198.102 25.7129V79.1797C198.102 79.8307 198.264 80.1562 198.59 80.1562C198.753 80.1562 198.997 79.9935 199.322 79.668C201.764 77.0638 204.856 74.541 208.6 72.0996C212.506 69.4954 216.656 67.3796 221.051 65.752C225.445 63.9616 229.596 63.0664 233.502 63.0664C244.407 63.0664 252.219 66.9727 256.939 74.7852C261.66 82.5977 264.02 94.6419 264.02 110.918V137.285C264.02 141.842 264.182 145.911 264.508 149.492C264.833 153.073 265.322 156.165 265.973 158.77C266.298 159.421 267.438 160.153 269.391 160.967C271.344 161.781 273.46 162.432 275.738 162.92C278.017 163.408 279.645 163.652 280.621 163.652C281.109 163.652 281.435 164.629 281.598 166.582C281.76 168.535 281.679 169.919 281.354 170.732L255.23 169.512L229.596 170.732C228.945 170.081 228.619 168.698 228.619 166.582C228.619 164.629 228.945 163.652 229.596 163.652C230.898 163.652 232.607 163.408 234.723 162.92C236.839 162.432 238.792 161.781 240.582 160.967C242.372 160.153 243.349 159.421 243.512 158.77C244.163 156.491 244.57 153.887 244.732 150.957C245.058 148.027 245.221 144.935 245.221 141.68V115.801C245.221 105.71 244.326 97.9785 242.535 92.6074C240.745 87.0736 237.978 83.2487 234.234 81.1328C230.491 79.0169 225.689 77.959 219.83 77.959C216.575 77.959 213.238 78.9355 209.82 80.8887C206.565 82.679 203.798 84.7949 201.52 87.2363C199.241 89.6777 198.102 91.875 198.102 93.8281V137.041C198.102 141.761 198.264 145.911 198.59 149.492C198.915 153.073 199.404 156.165 200.055 158.77C200.38 159.421 201.52 160.153 203.473 160.967C205.426 161.781 207.542 162.432 209.82 162.92C212.099 163.408 213.727 163.652 214.703 163.652C215.191 163.652 215.517 164.629 215.68 166.582C215.842 168.535 215.761 169.919 215.436 170.732L189.312 169.512L162.701 170.732ZM345.074 171.465C336.122 171.465 327.903 169.105 320.416 164.385C312.929 159.665 306.907 153.398 302.35 145.586C297.955 137.611 295.758 128.74 295.758 118.975C295.758 107.581 297.874 97.7344 302.105 89.4336C306.337 81.1328 312.115 74.7852 319.439 70.3906C326.764 65.8333 334.983 63.5547 344.098 63.5547C351.585 63.5547 358.176 65.0195 363.873 67.9492C369.57 70.7161 373.964 74.2969 377.057 78.6914C379.986 83.2487 382.102 87.8874 383.404 92.6074C384.869 97.1647 385.602 101.722 385.602 106.279C385.602 109.535 385.113 111.569 384.137 112.383C383.16 113.034 381.288 113.359 378.521 113.359H316.998C315.696 113.359 315.045 113.766 315.045 114.58C315.045 121.416 316.428 128.008 319.195 134.355C321.962 140.54 326.031 145.667 331.402 149.736C336.773 153.805 343.365 155.84 351.178 155.84C358.014 155.84 363.71 154.863 368.268 152.91C372.988 150.794 376.406 148.923 378.521 147.295L380.23 146.074C381.207 146.074 381.695 147.132 381.695 149.248C381.695 150.387 381.207 151.852 380.23 153.643C376.975 158.2 372.174 162.35 365.826 166.094C359.479 169.674 352.561 171.465 345.074 171.465ZM316.998 103.105H364.605C365.419 103.105 365.826 102.292 365.826 100.664C365.826 97.0833 364.85 93.1771 362.896 88.9453C361.106 84.5508 358.339 80.7259 354.596 77.4707C350.852 74.2155 346.132 72.5879 340.436 72.5879C335.227 72.5879 330.751 74.3783 327.008 77.959C323.264 81.377 320.416 85.3646 318.463 89.9219C316.51 94.3164 315.533 98.1413 315.533 101.396C315.533 102.536 316.021 103.105 316.998 103.105ZM457.379 170.732C456.891 170.244 456.646 168.942 456.646 166.826C456.646 164.71 456.891 163.652 457.379 163.652C458.844 163.652 460.797 163.408 463.238 162.92C465.68 162.269 467.958 161.536 470.074 160.723C472.353 159.909 473.736 159.014 474.225 158.037C475.364 156.247 475.934 148.597 475.934 135.088V42.8027C475.934 38.0827 475.771 33.9323 475.445 30.3516C475.283 26.7708 474.876 23.9225 474.225 21.8066C473.899 20.8301 472.597 19.9349 470.318 19.1211C468.202 18.3073 465.842 17.6562 463.238 17.168C460.797 16.6797 458.844 16.4355 457.379 16.4355C456.728 16.4355 456.402 15.459 456.402 13.5059C456.402 11.39 456.728 10.0065 457.379 9.35547C461.611 9.51823 466.087 9.68099 470.807 9.84375C475.689 9.84375 480.898 9.84375 486.432 9.84375L506.939 9.59961H520.855C522.971 9.59961 525.087 9.68099 527.203 9.84375C529.482 10.0065 531.679 10.2507 533.795 10.5762C540.305 11.7155 546.409 13.9128 552.105 17.168C557.965 20.2604 562.685 24.4922 566.266 29.8633C570.009 35.2344 571.881 41.8262 571.881 49.6387C571.881 55.3353 570.009 60.7878 566.266 65.9961C562.522 71.0417 559.023 74.541 555.768 76.4941C552.675 78.4473 549.99 79.8307 547.711 80.6445C546.409 81.1328 546.002 81.6211 546.49 82.1094C549.745 82.5977 553.408 84.0625 557.477 86.5039C561.546 88.9453 565.452 92.1191 569.195 96.0254C572.939 99.7689 576.031 104.082 578.473 108.965C581.077 113.848 582.379 118.975 582.379 124.346C582.379 133.623 579.775 141.68 574.566 148.516C569.521 155.352 562.359 160.641 553.082 164.385C543.805 168.128 532.9 170 520.367 170H486.92L457.379 170.732ZM513.287 78.9355C518.495 78.9355 523.053 78.6914 526.959 78.2031C533.632 77.5521 539.166 75.2734 543.561 71.3672C548.118 67.2982 550.396 61.9271 550.396 55.2539C550.396 44.0234 547.548 35.3158 541.852 29.1309C536.318 22.7832 528.017 19.6094 516.949 19.6094C509.299 19.6094 503.521 20.179 499.615 21.3184C498.639 21.4811 498.15 22.2135 498.15 23.5156L497.174 48.1738V77.2266C497.174 78.3659 502.545 78.9355 513.287 78.9355ZM514.264 159.014C518.333 159.014 522.32 158.688 526.227 158.037C530.296 157.386 535.097 156.084 540.631 154.131C546.165 152.34 550.641 149.167 554.059 144.609C557.477 139.889 559.186 134.03 559.186 127.031C559.186 120.033 557.639 113.685 554.547 107.988C551.454 102.292 546.734 97.7344 540.387 94.3164C534.039 90.8984 525.82 89.1895 515.729 89.1895C513.938 89.1895 511.578 89.2708 508.648 89.4336C505.719 89.5964 502.219 89.8405 498.15 90.166C497.499 91.9564 497.174 94.6419 497.174 98.2227V133.867C497.174 146.237 498.476 153.48 501.08 155.596C503.684 157.874 508.079 159.014 514.264 159.014ZM627.545 171.709C620.058 171.709 613.873 169.756 608.99 165.85C604.107 161.781 601.666 155.758 601.666 147.783C601.666 138.018 608.014 129.88 620.709 123.369C626.243 120.602 631.695 118.405 637.066 116.777C642.6 115.15 648.134 113.278 653.668 111.162C655.133 110.674 655.865 109.453 655.865 107.5V89.1895C655.865 83.9811 654.238 79.9935 650.982 77.2266C647.727 74.2969 643.821 72.832 639.264 72.832C634.381 72.832 630.312 74.541 627.057 77.959C623.801 81.2142 622.174 85.5273 622.174 90.8984C622.174 96.5951 618.837 99.4434 612.164 99.4434C607.444 99.4434 604.27 97.8971 602.643 94.8047C602.643 91.3867 604.026 87.8874 606.793 84.3066C609.723 80.5632 613.466 77.1452 618.023 74.0527C622.581 70.9603 627.545 68.4375 632.916 66.4844C638.45 64.5312 643.902 63.5547 649.273 63.5547C658.225 63.5547 664.654 65.752 668.561 70.1465C672.467 74.3783 674.42 81.2956 674.42 90.8984V147.295C674.42 150.713 675.315 153.561 677.105 155.84C678.896 158.118 681.337 159.258 684.43 159.258C686.546 159.258 689.394 158.118 692.975 155.84C693.626 155.84 693.951 156.491 693.951 157.793C693.951 159.909 693.544 161.618 692.73 162.92C686.057 168.617 680.361 171.465 675.641 171.465C671.897 171.465 668.316 169.919 664.898 166.826C661.48 163.734 659.12 160.479 657.818 157.061C657.005 157.712 655.947 158.607 654.645 159.746C653.505 160.723 652.529 161.536 651.715 162.188C648.297 164.792 644.553 167.07 640.484 169.023C636.578 170.814 632.265 171.709 627.545 171.709ZM636.822 157.793C641.38 157.793 645.693 156.491 649.762 153.887C653.831 151.283 655.865 148.516 655.865 145.586V120.439C651.633 122.067 647.564 123.532 643.658 124.834C639.915 126.136 636.904 127.194 634.625 128.008C631.695 129.147 628.847 131.182 626.08 134.111C623.476 137.041 622.174 140.378 622.174 144.121C622.174 149.004 623.639 152.503 626.568 154.619C629.661 156.735 633.079 157.793 636.822 157.793ZM752.789 171.465C747.255 171.465 741.803 170.977 736.432 170C731.223 168.861 727.805 168.291 726.178 168.291C724.713 168.291 722.923 168.779 720.807 169.756C718.691 170.57 717.389 170.977 716.9 170.977C716.249 170.977 715.191 170.732 713.727 170.244C712.424 169.756 711.773 169.186 711.773 168.535C711.773 167.559 712.262 164.466 713.238 159.258C714.215 153.887 714.703 146.481 714.703 137.041V35.9668C714.703 30.4329 714.215 25.2246 713.238 20.3418C712.587 17.7376 708.437 16.4355 700.787 16.4355H698.59C697.613 16.4355 697.125 15.5404 697.125 13.75C697.125 11.1458 697.613 9.84375 698.59 9.84375C707.704 9.02995 714.866 7.80924 720.074 6.18164C725.445 4.55404 729.27 2.92643 731.549 1.29883L732.525 0.566406H733.014C733.665 0.566406 734.316 1.05469 734.967 2.03125C735.618 2.84505 736.025 3.65885 736.188 4.47266C734.397 9.84375 733.502 16.9238 733.502 25.7129V68.4375C733.502 70.2279 733.746 71.123 734.234 71.123C734.397 71.123 734.479 71.123 734.479 71.123C734.641 70.9603 734.804 70.8789 734.967 70.8789C737.245 69.2513 740.745 67.5423 745.465 65.752C750.185 63.9616 754.335 63.0664 757.916 63.0664C768.333 63.0664 777.285 65.5892 784.771 70.6348C792.258 75.5176 797.955 81.7839 801.861 89.4336C805.93 97.0833 807.965 104.977 807.965 113.115C807.965 120.928 806.419 128.333 803.326 135.332C800.234 142.331 796.002 148.597 790.631 154.131C785.423 159.502 779.482 163.734 772.809 166.826C766.298 169.919 759.625 171.465 752.789 171.465ZM757.428 161.211C763.613 161.211 768.902 159.176 773.297 155.107C777.691 151.038 781.028 145.749 783.307 139.238C785.748 132.565 786.969 125.566 786.969 118.242C786.969 105.384 783.551 94.9674 776.715 86.9922C770.042 79.0169 761.171 75.0293 750.104 75.0293C745.546 75.0293 741.64 76.3314 738.385 78.9355C735.13 81.377 733.502 84.9577 733.502 89.6777V146.562C733.502 151.608 735.862 155.352 740.582 157.793C745.465 160.072 751.08 161.211 757.428 161.211ZM875.592 171.465C866.64 171.465 858.421 169.105 850.934 164.385C843.447 159.665 837.424 153.398 832.867 145.586C828.473 137.611 826.275 128.74 826.275 118.975C826.275 108.883 828.066 99.6875 831.646 91.3867C835.39 82.9232 840.761 76.1686 847.76 71.123C854.921 66.0775 863.548 63.5547 873.639 63.5547C891.542 63.5547 903.912 67.7051 910.748 76.0059C910.748 86.9108 907.737 92.3633 901.715 92.3633C898.948 92.3633 896.832 91.7936 895.367 90.6543C893.902 89.3522 892.031 87.0736 889.752 83.8184C884.706 76.3314 878.684 72.5879 871.686 72.5879C865.012 72.5879 858.909 75.7617 853.375 82.1094C848.004 88.457 845.318 97.8971 845.318 110.43C845.318 123.451 848.492 134.274 854.84 142.9C861.35 151.527 870.302 155.84 881.695 155.84C888.531 155.84 894.228 154.863 898.785 152.91C903.505 150.794 906.923 148.923 909.039 147.295L910.748 146.074C911.725 146.074 912.213 147.132 912.213 149.248C912.213 150.387 911.725 151.852 910.748 153.643C907.493 158.2 902.691 162.35 896.344 166.094C889.996 169.674 883.079 171.465 875.592 171.465ZM978.619 171.709C968.854 171.709 959.902 169.268 951.764 164.385C943.626 159.502 937.115 152.91 932.232 144.609C927.512 136.309 925.152 127.194 925.152 117.266C925.152 107.174 927.431 98.0599 931.988 89.9219C936.708 81.7839 943.056 75.3548 951.031 70.6348C959.007 65.752 968.04 63.3105 978.131 63.3105C987.896 63.3105 996.767 65.752 1004.74 70.6348C1012.88 75.5176 1019.31 82.028 1024.03 90.166C1028.91 98.304 1031.35 107.337 1031.35 117.266C1031.35 127.194 1028.99 136.309 1024.27 144.609C1019.55 152.91 1013.21 159.502 1005.23 164.385C997.418 169.268 988.548 171.709 978.619 171.709ZM980.816 162.188C986.676 162.188 991.803 160.316 996.197 156.572C1000.59 152.829 1004.01 147.783 1006.45 141.436C1009.06 135.088 1010.36 128.171 1010.36 120.684C1010.36 111.895 1008.73 103.919 1005.47 96.7578C1002.22 89.4336 997.906 83.6556 992.535 79.4238C987.327 75.0293 981.63 72.832 975.445 72.832C969.749 72.832 964.622 74.7038 960.064 78.4473C955.67 82.028 952.252 86.9108 949.811 93.0957C947.369 99.1178 946.148 105.954 946.148 113.604C946.148 122.393 947.695 130.531 950.787 138.018C954.042 145.342 958.274 151.201 963.482 155.596C968.854 159.99 974.632 162.188 980.816 162.188ZM1098.98 171.465C1090.03 171.465 1081.81 169.105 1074.32 164.385C1066.84 159.665 1060.81 153.398 1056.26 145.586C1051.86 137.611 1049.66 128.74 1049.66 118.975C1049.66 108.883 1051.45 99.6875 1055.04 91.3867C1058.78 82.9232 1064.15 76.1686 1071.15 71.123C1078.31 66.0775 1086.94 63.5547 1097.03 63.5547C1114.93 63.5547 1127.3 67.7051 1134.14 76.0059C1134.14 86.9108 1131.13 92.3633 1125.1 92.3633C1122.34 92.3633 1120.22 91.7936 1118.76 90.6543C1117.29 89.3522 1115.42 87.0736 1113.14 83.8184C1108.1 76.3314 1102.07 72.5879 1095.07 72.5879C1088.4 72.5879 1082.3 75.7617 1076.76 82.1094C1071.39 88.457 1068.71 97.8971 1068.71 110.43C1068.71 123.451 1071.88 134.274 1078.23 142.9C1084.74 151.527 1093.69 155.84 1105.08 155.84C1111.92 155.84 1117.62 154.863 1122.17 152.91C1126.89 150.794 1130.31 148.923 1132.43 147.295L1134.14 146.074C1135.11 146.074 1135.6 147.132 1135.6 149.248C1135.6 150.387 1135.11 151.852 1134.14 153.643C1130.88 158.2 1126.08 162.35 1119.73 166.094C1113.38 169.674 1106.47 171.465 1098.98 171.465ZM1143.9 170.732C1143.25 170.081 1142.93 168.698 1142.93 166.582C1142.93 164.629 1143.25 163.652 1143.9 163.652C1145.2 163.652 1146.99 163.408 1149.27 162.92C1151.55 162.432 1153.67 161.781 1155.62 160.967C1157.57 160.153 1158.63 159.421 1158.79 158.77C1159.45 156.491 1159.85 153.887 1160.02 150.957C1160.34 148.027 1160.5 144.935 1160.5 141.68V35.9668C1160.5 30.4329 1160.02 25.2246 1159.04 20.3418C1158.39 17.7376 1154.24 16.4355 1146.59 16.4355H1144.39C1143.41 16.4355 1142.93 15.5404 1142.93 13.75C1142.93 11.1458 1143.41 9.84375 1144.39 9.84375C1152.69 9.02995 1159.69 7.72786 1165.39 5.9375C1171.08 3.98438 1174.99 2.43815 1177.11 1.29883L1178.33 0.566406H1178.81C1179.47 0.566406 1180.12 1.05469 1180.77 2.03125C1181.42 2.84505 1181.83 3.65885 1181.99 4.47266C1180.2 9.84375 1179.3 16.9238 1179.3 25.7129V111.162C1182.56 110.511 1184.59 109.779 1185.41 108.965L1196.64 99.4434L1205.43 92.1191C1208.19 89.8405 1210.55 87.7246 1212.51 85.7715C1214.62 83.8184 1215.68 82.028 1215.68 80.4004C1215.68 78.2845 1213.89 77.1452 1210.31 76.9824C1207.05 76.8197 1205.18 76.4941 1204.69 76.0059C1203.39 72.7507 1203.47 70.8789 1204.94 70.3906H1224.22C1229.92 70.3906 1234.56 70.2279 1238.14 69.9023C1241.72 69.5768 1246.03 69.3327 1251.08 69.1699C1252.06 69.3327 1252.46 70.5534 1252.3 72.832C1252.14 74.9479 1251.65 76.0059 1250.84 76.0059C1249.53 76.0059 1247.66 76.25 1245.22 76.7383C1242.94 77.2266 1240.74 77.7962 1238.63 78.4473C1236.51 78.9355 1234.97 79.5052 1233.99 80.1562C1232.2 81.1328 1229.11 83.2487 1224.71 86.5039C1220.48 89.7591 1215.92 93.5026 1211.04 97.7344C1206.16 101.803 1201.76 105.791 1197.86 109.697C1210.39 123.044 1220.16 133.786 1227.15 141.924C1234.32 150.062 1238.95 155.107 1241.07 157.061C1243.84 159.339 1247.34 161.13 1251.57 162.432C1255.8 163.571 1258.81 164.141 1260.6 164.141C1261.25 164.141 1261.58 165.443 1261.58 168.047C1261.58 169.674 1261.5 170.57 1261.33 170.732L1234.72 169.512L1209.33 170.732C1208.68 170.081 1208.36 168.779 1208.36 166.826C1208.36 165.036 1208.68 164.141 1209.33 164.141C1210.96 164.141 1212.83 163.815 1214.95 163.164C1217.06 162.513 1218.12 161.781 1218.12 160.967C1218.12 160.641 1218.04 160.397 1217.88 160.234L1182.23 121.66L1179.3 122.393V137.041C1179.3 142.412 1179.47 146.969 1179.79 150.713C1180.28 154.294 1180.77 156.979 1181.26 158.77C1181.58 159.421 1182.72 160.153 1184.67 160.967C1186.63 161.781 1188.74 162.432 1191.02 162.92C1193.3 163.408 1194.93 163.652 1195.9 163.652C1196.39 163.652 1196.72 164.629 1196.88 166.582C1197.04 168.535 1196.96 169.919 1196.64 170.732L1170.51 169.512L1143.9 170.732ZM1369.49 170.732C1368.84 170.081 1368.51 168.861 1368.51 167.07C1368.51 164.792 1368.84 163.652 1369.49 163.652C1370.95 163.652 1372.91 163.49 1375.35 163.164C1377.79 162.676 1380.07 162.025 1382.18 161.211C1384.3 160.397 1385.52 159.583 1385.85 158.77C1386.5 156.491 1386.9 153.561 1387.07 149.98C1387.39 146.4 1387.55 142.087 1387.55 137.041V48.6621C1387.55 34.502 1386.82 26.1198 1385.36 23.5156C1384.22 21.0742 1375.43 19.8535 1358.99 19.8535C1352.81 19.8535 1348 20.4232 1344.59 21.5625C1341.17 22.5391 1338.56 24.5736 1336.77 27.666C1334.98 30.7585 1333.27 35.3971 1331.65 41.582C1331.32 42.3958 1330.51 42.8027 1329.21 42.8027C1326.44 42.8027 1324.49 42.2331 1323.35 41.0938L1327.98 6.18164C1331.57 6.99544 1334.74 7.64648 1337.51 8.13477C1340.27 8.62305 1342.71 8.86719 1344.83 8.86719C1356.55 8.86719 1366.88 9.02995 1375.84 9.35547C1384.79 9.68099 1392.27 9.84375 1398.3 9.84375C1410.83 9.84375 1421.57 9.68099 1430.52 9.35547C1439.64 9.02995 1446.8 8.86719 1452.01 8.86719C1454.12 8.86719 1456.57 8.62305 1459.33 8.13477C1462.1 7.64648 1465.27 6.99544 1468.85 6.18164L1473.49 41.0938C1472.35 42.2331 1470.4 42.8027 1467.63 42.8027C1466.33 42.8027 1465.52 42.3958 1465.19 41.582C1463.73 35.3971 1462.02 30.7585 1460.06 27.666C1458.27 24.5736 1455.67 22.5391 1452.25 21.5625C1448.83 20.4232 1444.03 19.8535 1437.85 19.8535C1420.76 19.8535 1411.81 21.0742 1410.99 23.5156C1409.53 28.5612 1408.79 36.6992 1408.79 47.9297V136.064C1408.79 145.505 1409.53 153.073 1410.99 158.77C1411.32 159.421 1412.54 160.153 1414.65 160.967C1416.77 161.781 1419.05 162.432 1421.49 162.92C1423.93 163.408 1425.64 163.652 1426.62 163.652C1427.27 163.652 1427.59 164.873 1427.59 167.314C1427.59 168.291 1427.43 169.43 1427.11 170.732C1418.97 170.407 1412.54 170.163 1407.82 170C1403.1 169.674 1400.09 169.512 1398.79 169.512L1369.49 170.732ZM1522.81 171.709C1513.04 171.709 1504.09 169.268 1495.95 164.385C1487.82 159.502 1481.3 152.91 1476.42 144.609C1471.7 136.309 1469.34 127.194 1469.34 117.266C1469.34 107.174 1471.62 98.0599 1476.18 89.9219C1480.9 81.7839 1487.25 75.3548 1495.22 70.6348C1503.2 65.752 1512.23 63.3105 1522.32 63.3105C1532.09 63.3105 1540.96 65.752 1548.93 70.6348C1557.07 75.5176 1563.5 82.028 1568.22 90.166C1573.1 98.304 1575.54 107.337 1575.54 117.266C1575.54 127.194 1573.18 136.309 1568.46 144.609C1563.74 152.91 1557.4 159.502 1549.42 164.385C1541.61 169.268 1532.74 171.709 1522.81 171.709ZM1525.01 162.188C1530.87 162.188 1535.99 160.316 1540.39 156.572C1544.78 152.829 1548.2 147.783 1550.64 141.436C1553.24 135.088 1554.55 128.171 1554.55 120.684C1554.55 111.895 1552.92 103.919 1549.66 96.7578C1546.41 89.4336 1542.1 83.6556 1536.72 79.4238C1531.52 75.0293 1525.82 72.832 1519.63 72.832C1513.94 72.832 1508.81 74.7038 1504.25 78.4473C1499.86 82.028 1496.44 86.9108 1494 93.0957C1491.56 99.1178 1490.34 105.954 1490.34 113.604C1490.34 122.393 1491.88 130.531 1494.98 138.018C1498.23 145.342 1502.46 151.201 1507.67 155.596C1513.04 159.99 1518.82 162.188 1525.01 162.188ZM1593.85 170.732C1593.2 170.081 1592.88 168.698 1592.88 166.582C1592.88 164.629 1593.2 163.652 1593.85 163.652C1595.16 163.652 1596.95 163.408 1599.22 162.92C1601.5 162.432 1603.62 161.781 1605.57 160.967C1607.53 160.153 1608.58 159.421 1608.75 158.77C1609.4 156.491 1609.8 153.887 1609.97 150.957C1610.29 148.027 1610.46 144.935 1610.46 141.68V95.5371C1610.46 89.3522 1609.32 84.9577 1607.04 82.3535C1605.41 80.4004 1603.46 79.0983 1601.18 78.4473C1599.06 77.7962 1597.11 77.4707 1595.32 77.4707C1593.69 77.3079 1592.88 77.0638 1592.88 76.7383C1592.88 72.832 1593.37 70.7975 1594.34 70.6348C1612.08 67.8678 1622.34 66.0775 1625.1 65.2637L1629.25 64.043C1629.9 63.8802 1630.31 64.5312 1630.47 65.9961C1630.64 67.4609 1630.64 68.5189 1630.47 69.1699L1629.01 81.377C1631.94 76.9824 1635.93 72.9134 1640.97 69.1699C1646.18 65.2637 1651.31 63.3105 1656.35 63.3105C1665.79 63.3105 1672.14 65.6706 1675.4 70.3906C1675.4 76.0872 1674.5 80.2376 1672.71 82.8418C1670.92 85.446 1668.72 86.748 1666.12 86.748C1663.19 86.748 1660.5 85.3646 1658.06 82.5977C1655.62 79.8307 1652.28 78.4473 1648.05 78.4473C1644.8 78.4473 1641.71 79.5866 1638.78 81.8652C1635.85 83.9811 1633.49 86.748 1631.7 90.166C1630.07 93.4212 1629.25 96.8392 1629.25 100.42V137.041C1629.25 141.761 1629.42 145.911 1629.74 149.492C1630.07 153.073 1630.56 156.165 1631.21 158.77C1631.53 159.421 1632.67 160.153 1634.62 160.967C1636.58 161.781 1638.69 162.432 1640.97 162.92C1643.41 163.408 1645.12 163.652 1646.1 163.652C1646.59 163.652 1646.91 164.629 1647.08 166.582C1647.24 168.535 1647.16 169.919 1646.83 170.732L1620.46 169.512L1593.85 170.732ZM1735.94 171.465C1726.99 171.465 1718.77 169.105 1711.29 164.385C1703.8 159.665 1697.78 153.398 1693.22 145.586C1688.82 137.611 1686.63 128.74 1686.63 118.975C1686.63 108.883 1688.42 99.6875 1692 91.3867C1695.74 82.9232 1701.11 76.1686 1708.11 71.123C1715.27 66.0775 1723.9 63.5547 1733.99 63.5547C1751.89 63.5547 1764.26 67.7051 1771.1 76.0059C1771.1 86.9108 1768.09 92.3633 1762.07 92.3633C1759.3 92.3633 1757.18 91.7936 1755.72 90.6543C1754.25 89.3522 1752.38 87.0736 1750.1 83.8184C1745.06 76.3314 1739.04 72.5879 1732.04 72.5879C1725.36 72.5879 1719.26 75.7617 1713.73 82.1094C1708.36 88.457 1705.67 97.8971 1705.67 110.43C1705.67 123.451 1708.84 134.274 1715.19 142.9C1721.7 151.527 1730.65 155.84 1742.05 155.84C1748.88 155.84 1754.58 154.863 1759.14 152.91C1763.86 150.794 1767.27 148.923 1769.39 147.295L1771.1 146.074C1772.08 146.074 1772.56 147.132 1772.56 149.248C1772.56 150.387 1772.08 151.852 1771.1 153.643C1767.84 158.2 1763.04 162.35 1756.7 166.094C1750.35 169.674 1743.43 171.465 1735.94 171.465ZM1781.84 170.732C1781.19 170.081 1780.87 168.698 1780.87 166.582C1780.87 164.629 1781.19 163.652 1781.84 163.652C1783.14 163.652 1784.93 163.408 1787.21 162.92C1789.49 162.432 1791.61 161.781 1793.56 160.967C1795.51 160.153 1796.57 159.421 1796.73 158.77C1797.87 154.375 1798.44 148.76 1798.44 141.924V35.9668C1798.44 30.4329 1797.96 25.2246 1796.98 20.3418C1796.33 17.7376 1792.18 16.4355 1784.53 16.4355H1782.33C1781.35 16.4355 1780.87 15.5404 1780.87 13.75C1780.87 11.1458 1781.35 9.84375 1782.33 9.84375C1790.63 9.02995 1797.63 7.72786 1803.33 5.9375C1809.02 3.98438 1812.93 2.43815 1815.04 1.29883L1816.27 0.566406H1816.75C1817.4 0.566406 1818.06 1.05469 1818.71 2.03125C1819.36 2.84505 1819.76 3.65885 1819.93 4.47266C1818.14 9.84375 1817.24 16.9238 1817.24 25.7129V79.1797C1817.24 79.8307 1817.4 80.1562 1817.73 80.1562C1817.89 80.1562 1818.14 79.9935 1818.46 79.668C1820.9 77.0638 1824 74.541 1827.74 72.0996C1831.65 69.4954 1835.8 67.3796 1840.19 65.752C1844.59 63.9616 1848.74 63.0664 1852.64 63.0664C1863.55 63.0664 1871.36 66.9727 1876.08 74.7852C1880.8 82.5977 1883.16 94.6419 1883.16 110.918V137.285C1883.16 141.842 1883.32 145.911 1883.65 149.492C1883.97 153.073 1884.46 156.165 1885.11 158.77C1885.44 159.421 1886.58 160.153 1888.53 160.967C1890.48 161.781 1892.6 162.432 1894.88 162.92C1897.16 163.408 1898.79 163.652 1899.76 163.652C1900.25 163.652 1900.58 164.629 1900.74 166.582C1900.9 168.535 1900.82 169.919 1900.49 170.732L1874.37 169.512L1848.74 170.732C1848.09 170.081 1847.76 168.698 1847.76 166.582C1847.76 164.629 1848.09 163.652 1848.74 163.652C1850.04 163.652 1851.75 163.408 1853.86 162.92C1855.98 162.432 1857.93 161.781 1859.72 160.967C1861.51 160.153 1862.49 159.421 1862.65 158.77C1863.3 156.491 1863.71 153.887 1863.87 150.957C1864.2 148.027 1864.36 144.935 1864.36 141.68V115.801C1864.36 105.71 1863.47 97.9785 1861.68 92.6074C1859.89 87.0736 1857.12 83.2487 1853.38 81.1328C1849.63 79.0169 1844.83 77.959 1838.97 77.959C1835.72 77.959 1832.38 78.9355 1828.96 80.8887C1825.71 82.679 1822.94 84.7949 1820.66 87.2363C1818.38 89.6777 1817.24 91.875 1817.24 93.8281V137.041C1817.24 141.761 1817.4 145.911 1817.73 149.492C1818.06 153.073 1818.54 156.165 1819.2 158.77C1819.52 159.421 1820.66 160.153 1822.61 160.967C1824.57 161.781 1826.68 162.432 1828.96 162.92C1831.24 163.408 1832.87 163.652 1833.84 163.652C1834.33 163.652 1834.66 164.629 1834.82 166.582C1834.98 168.535 1834.9 169.919 1834.58 170.732L1808.45 169.512L1781.84 170.732Z" fill="#A98105"/>
</svg>
