<svg width="3290" height="3290" viewBox="0 0 3290 3290" fill="none" xmlns="http://www.w3.org/2000/svg">
<rect width="3290" height="3290" fill="#A98105"/>
<g clip-path="url(#clip0_131_21)">
<path d="M1988.76 947.206C2011.47 948.919 2011.47 948.919 2019.74 956.946C2033.65 983.407 2035.87 1009 2034.36 1038.39C2034.21 1042.91 2034.06 1047.43 2033.91 1052.08C2031.94 1098.29 2019.98 1132.61 1998.85 1173.86C1995.78 1179.87 1995.78 1179.87 1992.66 1186C1986.72 1197.61 1980.73 1209.19 1974.73 1220.77C1973.22 1223.75 1971.7 1226.74 1970.14 1229.82C1952.49 1264.54 1933.11 1288.94 1904.58 1315.46C1900.48 1319.99 1896.45 1324.59 1892.52 1329.27C1881.94 1341.68 1870.57 1353.11 1858.97 1364.56C1847.45 1375.94 1836.15 1387.28 1825.65 1399.63C1815.15 1411.98 1803.85 1423.32 1792.33 1434.7C1754.62 1468.52 1754.62 1468.52 1732.69 1511.86C1744.85 1512.91 1751.63 1513.25 1761.99 1506.44C1764.62 1503.89 1767.25 1501.34 1769.96 1498.71C1772.96 1495.84 1775.96 1492.97 1779.05 1490.01C1782.27 1486.8 1785.5 1483.6 1788.82 1480.3C1792.4 1476.8 1795.99 1473.31 1799.57 1469.82C1817.02 1452.7 1833.9 1435.26 1849.74 1416.63C1855.89 1409.67 1862.39 1403.25 1869.06 1396.78C1885.84 1380.16 1900.47 1362.02 1915.1 1343.52C1917.77 1340.17 1917.77 1340.17 1920.5 1336.75C1944.78 1306.27 1968.33 1275.3 1990.95 1243.56C1992.99 1240.76 1995.02 1237.95 1997.12 1235.06C2016.29 1207.79 2027.16 1179.52 2034.36 1147.11C2036.68 1147.11 2038.99 1147.11 2041.38 1147.11C2056.01 1166.13 2053.73 1187.11 2053.66 1209.92C2053.66 1217.14 2053.8 1224.35 2053.96 1231.57C2054.26 1263.71 2048.25 1289.74 2034.36 1318.97C2032.86 1322.19 2031.36 1325.41 2029.81 1328.74C2025.37 1337.94 2020.73 1346.98 2015.95 1356.01C2014.26 1359.19 2012.58 1362.37 2010.85 1365.65C1997.33 1390.69 1982.53 1412.86 1964.21 1434.7C1961.33 1438.28 1958.45 1441.86 1955.48 1445.55C1929.91 1476.78 1901.39 1505.02 1872.51 1533.14C1869.4 1536.19 1866.29 1539.24 1863.08 1542.38C1858.86 1546.49 1858.86 1546.49 1854.54 1550.68C1847.67 1556.8 1847.67 1556.8 1848.45 1564.47C1907.21 1591.3 1966.58 1616.47 2026.25 1641.19C2075.75 1661.7 2125.12 1682.4 2174.11 1704.11C2218.14 1723.6 2262.6 1742.02 2307.09 1760.43C2356.94 1781.06 2406.55 1802.04 2455.73 1824.22C2503.07 1845.56 2550.85 1865.68 2598.89 1885.38C2661.61 1911.09 2723.96 1937.52 2786.09 1964.61C2805.13 1972.9 2824.21 1981.09 2843.3 1989.25C2847.47 1991.03 2847.47 1991.03 2851.72 1992.84C2862.44 1997.42 2873.16 2002 2883.88 2006.56C2897.89 2012.52 2911.89 2018.52 2925.85 2024.59C2932.31 2027.4 2938.77 2030.19 2945.23 2032.97C2987.72 2051.83 2987.72 2051.83 2999 2066C3001.67 2078.61 3001.47 2090.63 3000.97 2103.48C3000.97 2106.85 3000.96 2110.23 3000.95 2113.71C3000.61 2132 3000.61 2132 2999 2139.65C2988.48 2146.66 2988.48 2146.66 2977.32 2145.99C2962.63 2142.88 2949.45 2138.32 2935.54 2132.78C2931.5 2131.21 2931.5 2131.21 2927.37 2129.6C2921.58 2127.35 2915.8 2125.09 2910.02 2122.81C2897.78 2117.99 2885.51 2113.23 2873.25 2108.46C2866.99 2106.03 2860.73 2103.59 2854.47 2101.15C2825.42 2089.84 2796.26 2078.85 2767.05 2067.97C2737.92 2057.11 2708.82 2046.17 2679.78 2035.09C2643.82 2021.37 2607.79 2007.82 2571.74 1994.32C2560.78 1990.22 2549.82 1986.11 2538.85 1982C2510.86 1971.51 2482.86 1961.03 2454.86 1950.54C2379.91 1922.48 2305 1894.32 2230.11 1866.09C2223.29 1863.52 2216.46 1860.94 2209.64 1858.37C2196.54 1853.44 2183.45 1848.5 2170.36 1843.56C2166.1 1841.96 2161.85 1840.35 2157.47 1838.7C2135.25 1830.32 2113.04 1821.91 2090.85 1813.47C2088.56 1812.61 2086.28 1811.74 2083.93 1810.85C2073.06 1806.72 2062.2 1802.58 2051.33 1798.44C2026.05 1788.83 2000.67 1779.54 1975.17 1770.52C1940.27 1758.09 1905.67 1744.97 1871.12 1731.63C1862.29 1728.22 1853.46 1724.82 1844.63 1721.42C1818.97 1711.55 1793.32 1701.65 1767.73 1691.6C1757.52 1687.6 1747.29 1683.65 1737.05 1679.71C1732.32 1677.88 1727.59 1676.02 1722.87 1674.14C1716.35 1671.55 1709.8 1669.03 1703.25 1666.52C1697.78 1664.38 1697.78 1664.38 1692.19 1662.19C1662.33 1654.73 1638.73 1659.65 1610.84 1671.34C1604.35 1673.94 1597.85 1676.53 1591.36 1679.13C1588.05 1680.47 1584.74 1681.81 1581.34 1683.2C1565.25 1689.67 1549.04 1695.77 1532.82 1701.89C1526.34 1704.35 1519.86 1706.82 1513.38 1709.28C1411.38 1747.96 1411.38 1747.96 1366.57 1763.06C1327.21 1776.33 1288.57 1791.26 1249.87 1806.31C1200.24 1825.58 1150.31 1843.93 1100.2 1861.92C1036.41 1884.81 1036.41 1884.81 973.042 1908.83C938.319 1922.36 903.442 1935.42 868.467 1948.29C865.698 1949.3 862.93 1950.32 860.077 1951.37C824.714 1964.37 789.321 1977.29 753.916 1990.18C738.898 1995.65 723.88 2001.12 708.863 2006.59C703.178 2008.66 703.178 2008.66 697.378 2010.78C626.91 2036.46 556.656 2062.71 486.491 2089.21C445.72 2104.59 404.873 2119.76 363.896 2134.59C359.776 2136.1 355.656 2137.61 351.412 2139.16C314.182 2152.54 314.182 2152.54 294.508 2153.67C293.35 2152.52 292.193 2151.36 291 2150.17C291.136 2140.61 291.514 2131.2 292.096 2121.67C292.221 2119.05 292.345 2116.43 292.473 2113.73C294.855 2072.92 294.855 2072.92 310.649 2056.51C323.408 2047.09 337.307 2041.22 351.948 2035.31C358.503 2032.58 365.057 2029.86 371.61 2027.13C375.401 2025.56 379.192 2023.99 383.098 2022.38C398.478 2015.99 413.775 2009.4 429.077 2002.82C533.987 1957.8 533.987 1957.8 581.926 1939.96C630.918 1921.66 678.497 1900.2 726.301 1879.05C729.378 1877.69 732.454 1876.32 735.624 1874.92C738.692 1873.56 741.76 1872.21 744.921 1870.81C772.995 1858.4 801.177 1846.26 829.443 1834.3C831.745 1833.33 834.047 1832.35 836.419 1831.35C882.595 1811.83 928.921 1792.67 975.243 1773.5C1064.93 1736.39 1154.56 1699.11 1243.8 1660.92C1246.27 1659.86 1248.75 1658.8 1251.3 1657.71C1280.06 1645.39 1308.73 1632.88 1337.3 1620.15C1348.81 1615.03 1360.32 1609.91 1371.83 1604.8C1374.7 1603.52 1377.58 1602.25 1380.53 1600.93C1420.55 1583.18 1460.88 1566.37 1501.54 1550.15C1503.81 1549.24 1506.08 1548.34 1508.42 1547.4C1531.13 1538.33 1553.84 1529.3 1576.61 1520.4C1587.13 1516.29 1597.62 1512.12 1608.11 1507.96C1611.94 1506.48 1615.77 1505.01 1619.71 1503.49C1648.53 1492 1662.98 1481.55 1676.79 1453.12C1702.69 1403.66 1736.67 1361.86 1775.47 1322.01C1784.16 1313.02 1792.64 1303.85 1801.13 1294.67C1818.93 1275.44 1837 1256.6 1855.67 1238.21C1864.47 1229.27 1872.57 1219.82 1880.72 1210.28C1887.55 1202.66 1894.78 1195.64 1902.16 1188.54C1945.53 1145.48 1995.95 1080.82 1996.43 1017.57C1996.27 993.801 1992.59 970.619 1988.76 947.206Z" fill="white"/>
<path d="M1878.88 2261.13C1886.89 2262.37 1894.9 2263.56 1902.92 2264.73C2247.97 2315.07 2247.97 2315.07 2353.57 2413.21C2358.21 2422.49 2357.53 2429.46 2357.54 2439.85C2357.55 2443.98 2357.56 2448.12 2357.57 2452.38C2357.54 2459.14 2357.54 2459.14 2357.52 2466.03C2357.51 2468.33 2357.51 2470.63 2357.5 2473.01C2357.42 2511.1 2356.67 2549.17 2355.54 2587.25C2355.47 2589.65 2355.41 2592.05 2355.34 2594.53C2352.86 2679.06 2352.86 2679.06 2343.05 2693.78C2327.42 2691.99 2317.73 2688.53 2304.9 2679.53C2263.38 2651.87 2217.37 2632.2 2170.51 2615.53C2167.87 2614.58 2165.23 2613.63 2162.51 2612.65C2070.81 2580.19 1966.38 2555.05 1869.13 2548.23C1865.1 2547.94 1861.07 2547.65 1856.91 2547.36C1852.75 2547.07 1848.58 2546.78 1844.29 2546.48C1836.05 2545.9 1827.82 2545.31 1819.58 2544.73C1815.95 2544.47 1812.32 2544.22 1808.57 2543.96C1801.47 2543.41 1794.36 2542.82 1787.27 2542.11C1762.9 2539.67 1738.79 2538.85 1714.31 2538.75C1708.26 2538.71 1708.26 2538.71 1702.09 2538.68C1610.06 2538.24 1518.93 2538.84 1427.52 2549.99C1424.49 2550.34 1421.46 2550.7 1418.34 2551.07C1318.96 2562.89 1224.75 2583.07 1129.66 2614.23C1122.9 2616.44 1116.12 2618.6 1109.34 2620.75C1070.68 2633.04 1034.06 2646.97 998.392 2666.45C974.939 2679.11 974.939 2679.11 960.985 2676.24C952.545 2663.59 952.942 2657.41 952.628 2642.33C952.57 2639.96 952.512 2637.6 952.453 2635.17C952.273 2627.36 952.145 2619.54 952.023 2611.73C951.922 2606.29 951.82 2600.85 951.717 2595.41C951.51 2584.01 951.332 2572.6 951.17 2561.19C950.959 2546.61 950.651 2532.02 950.317 2517.43C950.076 2506.19 949.9 2494.96 949.741 2483.72C949.655 2478.34 949.546 2472.97 949.413 2467.59C949.233 2460.05 949.145 2452.52 949.079 2444.98C949.007 2440.7 948.934 2436.41 948.86 2432C950.808 2417.67 955.346 2410.27 964.492 2399.18C970.851 2394.92 970.851 2394.92 977.393 2392.61C981.096 2391.25 981.096 2391.25 984.873 2389.85C987.516 2388.95 990.16 2388.05 992.883 2387.12C995.668 2386.11 998.453 2385.1 1001.32 2384.05C1007.17 2381.93 1013.02 2379.83 1018.89 2377.75C1029.92 2373.81 1040.85 2369.62 1051.78 2365.41C1117.64 2340.13 1183.31 2316.91 1252.13 2300.98C1257.38 2299.74 1262.63 2298.51 1267.89 2297.27C1333.67 2281.87 1399.64 2268.04 1466.32 2257.14C1468.94 2256.7 1471.56 2256.27 1474.26 2255.82C1607.58 2233.91 1745.92 2240.26 1878.88 2261.13ZM1634.48 2364.11C1626.19 2372.39 1624.19 2376.58 1622.42 2388.22C1624.67 2404.3 1631.61 2415.17 1644.34 2425.26C1656.29 2428.33 1664.69 2426.85 1676.57 2423.73C1687.7 2415.26 1692.99 2409.22 1697.84 2396.11C1697.54 2381.3 1692.81 2372.04 1683.59 2360.6C1663.57 2345.46 1653.78 2349.63 1634.48 2364.11ZM1443.74 2378.13C1440.71 2387.84 1441.77 2393.07 1445.06 2402.68C1452.82 2414.2 1459.56 2423.13 1473.12 2427.23C1485.73 2426.91 1490.31 2424.02 1500.09 2415.84C1510.44 2403.56 1510.44 2403.56 1515.21 2388.66C1509.57 2372.38 1501.89 2362.5 1487.15 2353.58C1464.85 2349.4 1455.77 2360.65 1443.74 2378.13ZM1824.61 2382.96C1816.89 2393.38 1815.77 2404.01 1816.88 2416.71C1821.44 2428.11 1826.02 2433.13 1835.52 2440.82C1847.73 2445.94 1853.46 2445.44 1865.99 2441.26C1876.91 2432.77 1882.45 2426.64 1887.26 2413.64C1886.94 2398.05 1881.88 2390.95 1873.01 2378.13C1854.92 2366.08 1840.77 2367.98 1824.61 2382.96ZM1255.64 2406.19C1249.54 2416 1249.54 2416 1248.62 2427.23C1252.96 2439.72 1260.21 2449.09 1269.01 2458.8C1281.16 2464.35 1288.6 2462.57 1301.24 2458.8C1311.07 2449.4 1317.23 2441.61 1322.29 2428.99C1322.29 2413.88 1315.75 2403.45 1305.62 2392.6C1284.05 2381.81 1269.55 2387.91 1255.64 2406.19ZM2002.79 2430.74C1996.97 2440.59 1996.97 2440.59 1995.78 2451.78C2001.33 2468.1 2009.09 2477.94 2023.84 2486.86C2038.59 2489.68 2043.62 2487.68 2056.29 2479.4C2066.55 2468.68 2070.86 2462.93 2072.95 2448.28C2067.89 2433.94 2062.28 2423.47 2048.39 2416.71C2028.16 2414.46 2017.05 2414.81 2002.79 2430.74ZM1063.87 2453.81C1057.16 2460.98 1054.29 2466.74 1052.19 2476.34C1052.89 2493.26 1057.21 2503.39 1069.73 2514.91C1084.73 2519.64 1091.43 2519.79 1105.68 2512.94C1116.4 2503.44 1121.48 2497 1125.85 2483.35C1123.58 2465.17 1114.04 2456.52 1100.77 2445.13C1085.37 2435.96 1075.76 2443.1 1063.87 2453.81ZM2199.23 2476.34C2195.04 2490.13 2194.15 2497.25 2199.89 2510.53C2208.65 2521.48 2208.65 2521.48 2220.27 2528.94C2234.41 2528.69 2242.12 2527.65 2253.16 2518.64C2263.49 2505.53 2263.78 2496.49 2262.37 2479.84C2256.07 2470.19 2251.66 2463.97 2241.32 2458.8C2221.52 2456.1 2212.55 2461.78 2199.23 2476.34Z" fill="white"/>
<path d="M1685.98 1799.27C1690.38 1800.89 1694.78 1802.5 1699.18 1804.11C1701.68 1805.03 1704.18 1805.95 1706.75 1806.9C1723.56 1813.05 1740.43 1819.02 1757.29 1825.03C1902.86 1877.08 1902.86 1877.08 1953.25 1895.9C1988.81 1909.18 2024.52 1921.99 2060.32 1934.63C2064.96 1936.27 2069.61 1937.91 2074.25 1939.55C2076.62 1940.38 2078.99 1941.22 2081.44 1942.08C2101.17 1949.06 2120.89 1956.1 2140.6 1963.16C2145.31 1964.85 2145.31 1964.85 2150.11 1966.57C2175.35 1975.61 2175.35 1975.61 2187.42 1979.94C2216.52 1990.39 2245.64 2000.78 2274.91 2010.74C2335.86 2031.48 2396.14 2053.66 2456.3 2076.56C2482.71 2086.62 2509.15 2096.62 2535.59 2106.6C2539.49 2108.07 2539.49 2108.07 2543.47 2109.58C2595.74 2129.3 2648.25 2148.31 2700.99 2166.73C2703.75 2167.7 2706.5 2168.67 2709.34 2169.66C2714.31 2171.4 2719.28 2173.13 2724.27 2174.85C2738.09 2179.69 2751.27 2184.93 2763.98 2192.25C2770.53 2209.77 2765.53 2225.34 2760.69 2242.67C2760.01 2245.25 2759.32 2247.83 2758.61 2250.49C2756.93 2256.81 2755.2 2263.11 2753.46 2269.41C2728.53 2276.13 2708.66 2267.89 2684.78 2259.92C2678.19 2257.79 2671.59 2255.66 2665 2253.53C2658.03 2251.28 2651.07 2249 2644.11 2246.71C2622.55 2239.62 2600.94 2232.68 2579.33 2225.73C2574.56 2224.2 2569.79 2222.66 2565.02 2221.13C2527.04 2208.89 2488.93 2197.39 2450.47 2186.77C2409.82 2175.51 2369.75 2163.11 2329.9 2149.28C2298.02 2138.31 2265.79 2128.76 2233.44 2119.27C2193.28 2107.44 2153.35 2094.93 2113.44 2082.29C2096.9 2077.05 2080.35 2071.83 2063.8 2066.61C2055.65 2064.03 2047.5 2061.46 2039.34 2058.88C1985.44 2041.86 1931.49 2024.96 1877.35 2008.7C1870.14 2006.54 1862.94 2004.37 1855.73 2002.2C1850.91 2000.76 1846.09 1999.31 1841.28 1997.87C1811.92 1989.07 1782.71 1979.9 1753.62 1970.25C1750.68 1969.27 1747.74 1968.3 1744.71 1967.3C1730.37 1962.56 1716.06 1957.78 1701.76 1952.92C1696.54 1951.18 1691.32 1949.44 1686.09 1947.71C1683.77 1946.9 1681.44 1946.09 1679.04 1945.26C1650.25 1935.81 1628.03 1939.34 1600.19 1948.48C1597.29 1949.39 1594.38 1950.31 1591.38 1951.26C1581.91 1954.25 1572.46 1957.3 1563.01 1960.34C1549.69 1964.57 1536.37 1968.76 1523.05 1972.96C1518.04 1974.54 1518.04 1974.54 1512.94 1976.16C1482.11 1985.89 1451.12 1994.99 1420.06 2003.96C1383.63 2014.53 1347.53 2025.79 1311.63 2038.07C1281.57 2048.24 1251.16 2057.07 1220.66 2065.78C1185.44 2075.84 1150.46 2086.49 1115.55 2097.56C1078.17 2109.41 1040.66 2120.46 1002.86 2130.88C965.492 2141.17 928.529 2152.32 891.706 2164.42C855.152 2176.42 818.473 2187.55 781.391 2197.84C753.135 2205.78 725.131 2214.38 697.148 2223.23C693.364 2224.42 689.581 2225.62 685.682 2226.85C666.558 2232.9 647.446 2238.98 628.35 2245.12C621.252 2247.37 614.154 2249.62 607.056 2251.88C603.793 2252.94 600.53 2254 597.169 2255.09C581.16 2260.14 567.589 2263.74 550.575 2262.4C544.21 2249.67 546.269 2234.76 546.19 2220.75C546.118 2217.55 546.046 2214.36 545.971 2211.06C545.953 2207.98 545.935 2204.89 545.916 2201.71C545.883 2198.89 545.851 2196.07 545.817 2193.16C547.403 2183.11 550.894 2178.81 557.591 2171.21C564.407 2167.5 564.407 2167.5 572.249 2164.7C575.213 2163.62 578.177 2162.54 581.231 2161.43C586.058 2159.75 586.058 2159.75 590.983 2158.03C596.024 2156.22 596.024 2156.22 601.168 2154.37C612.131 2150.44 623.116 2146.57 634.104 2142.71C641.656 2140.03 649.208 2137.33 656.758 2134.64C709.972 2115.72 763.422 2097.6 817.095 2080.02C841.136 2072.07 864.982 2063.55 888.859 2055.12C906.006 2049.1 923.196 2043.2 940.376 2037.28C979.112 2023.91 1017.76 2010.3 1056.39 1996.63C1089.14 1985.04 1121.93 1973.59 1154.79 1962.31C1185.65 1951.71 1216.28 1940.59 1246.87 1929.22C1298 1910.24 1349.65 1892.84 1401.34 1875.43C1461.4 1855.17 1521.07 1833.99 1580.49 1811.93C1583.34 1810.87 1586.19 1809.82 1589.12 1808.73C1594.39 1806.77 1599.65 1804.81 1604.91 1802.84C1634.36 1791.88 1656.02 1788.14 1685.98 1799.27Z" fill="white"/>
<path d="M1737.96 2069.5C1743.95 2069.82 1743.95 2069.82 1750.06 2070.14C1824.4 2074.29 1895.48 2085.45 1967.77 2102.91C1977.99 2105.35 1988.24 2107.65 1998.49 2109.97C2018.78 2114.68 2038.87 2119.96 2058.92 2125.62C2062.84 2126.72 2066.76 2127.83 2070.8 2128.97C2163.76 2155.6 2249.85 2193.74 2336.43 2236.4C2345.31 2240.75 2354.23 2245 2363.18 2249.2C2367.65 2251.34 2372.12 2253.47 2376.59 2255.6C2380.21 2257.31 2383.83 2259.01 2387.57 2260.77C2396.7 2266.56 2399.46 2269.7 2402.68 2279.93C2403.89 2292.8 2403.21 2305.61 2402.68 2318.51C2402.57 2321.79 2402.47 2325.08 2402.36 2328.46C2402.18 2331.54 2401.99 2334.62 2401.8 2337.8C2401.64 2340.59 2401.48 2343.37 2401.31 2346.24C2399.17 2353.58 2399.17 2353.58 2393.31 2360.05C2382.03 2365.65 2376.28 2363.49 2364.09 2360.6C2355.8 2356.94 2347.94 2353.18 2339.95 2348.97C2335.27 2346.56 2330.59 2344.16 2325.9 2341.76C2323.48 2340.51 2321.05 2339.25 2318.55 2337.96C2273.84 2314.87 2229.2 2293.22 2181.69 2276.43C2177.93 2275.08 2174.16 2273.74 2170.28 2272.35C2068.79 2236.45 1966.01 2209.13 1858.97 2195.76C1855.49 2195.31 1852 2194.87 1848.41 2194.4C1781.78 2186.04 1716.48 2183.91 1649.38 2185.46C1644.55 2185.56 1639.71 2185.65 1634.88 2185.75C1417.23 2190.1 1218.56 2229.74 1016.67 2312.59C1014.13 2313.63 1011.6 2314.67 1008.98 2315.74C983.118 2326.38 957.567 2337.14 932.992 2350.57C925.907 2353.58 925.907 2353.58 911.876 2353.58C902.377 2334.59 904.479 2308.39 903.983 2287.61C903.893 2283.89 903.802 2280.18 903.709 2276.36C905.065 2264.04 908.113 2258.36 915.383 2248.37C923.924 2242.92 923.924 2242.92 934.196 2238.29C938.049 2236.52 941.901 2234.75 945.87 2232.93C950.062 2231.08 954.254 2229.23 958.573 2227.33C963.007 2225.34 967.44 2223.34 971.872 2221.35C981.14 2217.19 990.424 2213.06 999.717 2208.96C1012.87 2203.13 1025.91 2197.09 1038.95 2191.02C1146.07 2141.92 1260.5 2113.82 1374.9 2087.04C1379.19 2086.03 1383.48 2085.01 1387.89 2083.97C1414.48 2077.95 1440.45 2074.34 1467.64 2072.57C1471.46 2072.3 1475.28 2072.03 1479.22 2071.74C1486.74 2071.21 1494.25 2070.69 1501.77 2070.19C1509.88 2069.63 1517.99 2069 1526.09 2068.3C1596.41 2062.58 1667.61 2065.77 1737.96 2069.5Z" fill="white"/>
<path d="M1774.79 519.33C1788.18 546.114 1776.35 588.768 1771.94 616.873C1771.36 620.637 1770.78 624.401 1770.18 628.279C1766.7 649.339 1761.68 667.891 1753.74 687.675C1752.85 697.619 1752.85 697.619 1753.74 705.21C1761.84 705.21 1769.95 705.21 1778.3 705.21C1774.15 793.328 1768.86 880.611 1700.7 944.397C1690.6 953.935 1681.64 964.313 1672.57 974.822C1661.44 987.548 1649.81 999.8 1638.2 1012.09C1635.87 1014.57 1633.54 1017.05 1631.14 1019.61C1590.4 1062.83 1590.4 1062.83 1568.05 1082.01C1545.11 1101.8 1524.17 1123.37 1504.47 1146.35C1497.72 1154.07 1490.8 1161.61 1483.82 1169.12C1467.27 1186.96 1451.36 1205.12 1436.14 1224.12C1429.57 1232.25 1422.92 1240.25 1416.16 1248.21C1377.82 1293.69 1353.54 1331.23 1357.36 1392.62C1361.28 1416.16 1369.21 1435.73 1381.96 1455.84C1385.42 1462.76 1385.42 1462.76 1385.42 1476.79C1367.51 1479.52 1358.24 1476.36 1343.11 1466.27C1316.84 1446.39 1301.7 1424.74 1294.22 1392.62C1292.71 1378.41 1292.55 1364.37 1292.69 1350.09C1292.72 1346.22 1292.75 1342.34 1292.78 1338.35C1294.18 1270.33 1319.58 1215.42 1364.38 1164.65C1367.44 1160.97 1370.49 1157.27 1373.53 1153.57C1396.55 1125.75 1421.34 1100.09 1447.14 1074.84C1461.62 1060.64 1475.35 1046.13 1488.56 1030.75C1496.47 1021.74 1504.88 1013.45 1513.46 1005.07C1524.32 994.374 1534.92 983.598 1544.81 971.975C1556.94 957.739 1570.14 944.69 1583.52 931.643C1593.16 922.18 1602.25 912.473 1611.05 902.229C1624.91 886.197 1639.95 871.499 1655.08 856.677C1699.34 812.765 1732.23 774.192 1746.73 712.225C1739.85 712.621 1739.85 712.621 1732.69 715.732C1730.33 721.566 1727.99 727.413 1725.68 733.268C1706.82 760.904 1682.63 784.206 1658.91 807.604C1655.23 811.259 1651.55 814.916 1647.88 818.575C1638.29 828.115 1628.68 837.636 1619.07 847.151C1603.67 862.392 1588.3 877.657 1572.94 892.934C1567.63 898.211 1562.3 903.475 1556.98 908.738C1540.67 924.925 1524.78 941.201 1509.91 958.731C1500.57 969.483 1490.31 979.331 1480.13 989.292C1465.18 1004.08 1450.57 1018.91 1436.97 1034.97C1429.5 1043.68 1421.71 1052.09 1413.93 1060.53C1399.71 1076.14 1386.08 1092.07 1372.86 1108.52C1366.65 1116.23 1360.38 1123.86 1354.03 1131.46C1304.87 1190.74 1278.33 1247.76 1274.71 1325.76C1274.56 1328.83 1274.41 1331.9 1274.25 1335.06C1273.88 1342.55 1273.53 1350.05 1273.18 1357.55C1255.52 1351.66 1249.69 1334.97 1241.61 1318.97C1223.62 1273.01 1222.84 1227.86 1239.85 1181.75C1241.75 1176.47 1241.75 1176.47 1243.69 1171.09C1271.69 1095.15 1313.96 1030.89 1372.16 974.442C1381.85 965.012 1391.04 955.412 1399.8 945.112C1414.84 927.846 1430.99 911.798 1447.25 895.694C1450.43 892.531 1453.6 889.367 1456.88 886.108C1468.66 874.375 1480.46 862.659 1492.26 850.943C1503.87 839.42 1515.46 827.883 1527.05 816.344C1530.07 813.355 1533.09 810.366 1536.2 807.286C1551.37 792.174 1566.03 776.867 1579.91 760.549C1589.91 749.125 1600.84 738.629 1611.68 728.007C1627.33 712.504 1642.78 697.053 1656.96 680.167C1661.09 675.336 1665.39 670.642 1669.76 666.029C1702.42 631.39 1727.08 595.144 1742.68 550.073C1748.33 536.516 1758.43 519.33 1774.79 519.33Z" fill="white"/>
<path d="M1753.74 358C1762.87 364.696 1764.34 368.849 1766.95 380.098C1767.58 384.78 1768.14 389.471 1768.65 394.168C1769.07 397.898 1769.07 397.898 1769.5 401.704C1775.44 461.313 1761.62 503.519 1725.68 550.895C1707.87 572.204 1688.37 592.009 1668.53 611.425C1662.63 617.436 1657.19 623.661 1651.74 630.08C1633.51 651.038 1613.51 670.222 1593.73 689.702C1590.75 692.65 1587.78 695.598 1584.71 698.635C1582.06 701.248 1579.4 703.861 1576.67 706.553C1569.76 713.731 1563.26 720.982 1556.78 728.537C1542.53 744.944 1527.22 760.19 1511.76 775.454C1506.55 780.599 1501.36 785.757 1496.17 790.918C1481.43 805.572 1466.67 820.205 1451.89 834.823C1442.79 843.822 1433.72 852.839 1424.65 861.867C1419.6 866.882 1414.53 871.877 1409.47 876.871C1388.21 898.042 1368.99 920.216 1350.35 943.699C1346.46 948.4 1342.56 953.092 1338.65 957.768C1273.26 1035.81 1273.26 1035.81 1243.55 1131.35C1241.39 1141.06 1238.73 1144.48 1231.08 1150.62C1228.77 1149.46 1226.45 1148.31 1224.07 1147.11C1202.98 1082.79 1211.01 1012.69 1238.88 951.85C1248.21 934.411 1259.45 919.152 1271.97 903.871C1277.12 897.577 1282.18 891.221 1287.25 884.857C1306.23 861.131 1325.65 837.797 1345.52 814.81C1347.2 812.871 1348.87 810.933 1350.6 808.935C1356.31 802.376 1362.09 795.873 1367.89 789.383C1370.44 786.511 1372.99 783.639 1375.62 780.68C1406 746.989 1438.28 715.223 1470.49 683.291C1481.7 672.177 1492.9 661.051 1504.09 649.918C1506.6 647.433 1509.12 644.948 1511.71 642.388C1525.68 628.479 1538.94 614.188 1551.81 599.254C1558.85 591.22 1566.3 583.71 1573.94 576.253C1576.87 573.377 1579.79 570.5 1582.8 567.537C1585.82 564.577 1588.84 561.616 1591.95 558.567C1615.97 534.743 1638.36 511.05 1659.03 484.258C1662.56 479.936 1666.1 475.626 1669.65 471.326C1689.07 447.792 1708.06 424.03 1726.12 399.429C1727.69 397.284 1729.27 395.14 1730.89 392.931C1739.11 381.602 1746.75 370.129 1753.74 358Z" fill="white"/>
<path d="M1855.47 2672.74C1876.68 2682.69 1888.36 2693.09 1897.56 2714.82C1898.86 2726.2 1898.86 2726.2 1898.85 2738.72C1898.86 2741.04 1898.87 2743.35 1898.88 2745.74C1898.91 2753.45 1898.86 2761.16 1898.81 2768.88C1898.81 2774.43 1898.82 2779.98 1898.83 2785.53C1898.85 2800.56 1898.8 2815.6 1898.74 2830.63C1898.69 2846.37 1898.69 2862.1 1898.69 2877.84C1898.68 2904.25 1898.63 2930.67 1898.55 2957.08C1898.45 2991 1898.41 3024.92 1898.39 3058.84C1898.38 3087.99 1898.34 3117.15 1898.29 3146.3C1898.27 3155.68 1898.26 3165.06 1898.25 3174.44C1898.24 3189.16 1898.2 3203.87 1898.15 3218.59C1898.13 3224 1898.12 3229.41 1898.12 3234.82C1898.11 3242.18 1898.09 3249.55 1898.05 3256.92C1898.04 3261.05 1898.03 3265.17 1898.02 3269.42C1897.56 3279.48 1897.56 3279.48 1894.05 3290C1879.26 3290.35 1864.47 3290.6 1849.67 3290.77C1844.64 3290.84 1839.6 3290.94 1834.57 3291.06C1827.34 3291.23 1820.1 3291.31 1812.87 3291.37C1808.51 3291.44 1804.16 3291.52 1799.67 3291.59C1788.82 3290 1788.82 3290 1782.96 3284.26C1776.95 3273.57 1776.97 3266.24 1776.96 3253.99C1776.93 3249.47 1776.9 3244.96 1776.87 3240.3C1776.89 3235.3 1776.91 3230.3 1776.93 3225.3C1776.92 3220.03 1776.9 3214.76 1776.88 3209.48C1776.83 3195.16 1776.85 3180.84 1776.88 3166.53C1776.91 3151.52 1776.88 3136.52 1776.87 3121.52C1776.85 3096.31 1776.87 3071.1 1776.92 3045.89C1776.98 3016.79 1776.96 2987.69 1776.9 2958.6C1776.86 2933.59 1776.85 2908.58 1776.88 2883.57C1776.89 2868.65 1776.9 2853.72 1776.86 2838.8C1776.83 2824.75 1776.85 2810.7 1776.91 2796.65C1776.93 2791.51 1776.92 2786.37 1776.9 2781.23C1776.65 2721.21 1776.65 2721.21 1794.72 2696.1C1796.75 2694.25 1798.79 2692.4 1800.88 2690.49C1802.9 2688.58 1804.92 2686.67 1807 2684.7C1822.01 2673.05 1836.59 2668.96 1855.47 2672.74Z" fill="white"/>
<path d="M1677.21 2661.39C1690.49 2667.53 1701.4 2673.29 1708.14 2686.77C1720.66 2749.94 1715.37 2817.32 1714.8 2881.44C1714.68 2895.72 1714.58 2910.01 1714.48 2924.29C1714.28 2951.23 1714.07 2978.16 1713.85 3005.1C1713.59 3035.82 1713.36 3066.53 1713.13 3097.24C1712.66 3160.33 1712.17 3223.41 1711.65 3286.49C1696.23 3286.58 1680.8 3286.64 1665.38 3286.69C1660.13 3286.7 1654.88 3286.73 1649.63 3286.76C1642.1 3286.8 1634.57 3286.82 1627.04 3286.84C1622.5 3286.85 1617.96 3286.87 1613.29 3286.89C1602.91 3286.49 1602.91 3286.49 1599.4 3282.99C1598.83 3275.49 1598.52 3267.99 1598.29 3260.48C1598.22 3258.07 1598.14 3255.67 1598.07 3253.19C1597.92 3247.99 1597.77 3242.8 1597.64 3237.6C1597.44 3230.2 1597.21 3222.81 1596.97 3215.41C1593.79 3107.95 1595.91 3000.25 1597.2 2892.77C1597.39 2876.28 1597.57 2859.78 1597.74 2843.28C1597.88 2830.34 1598.03 2817.4 1598.18 2804.46C1598.25 2798.37 1598.32 2792.27 1598.38 2786.18C1599.27 2698.09 1599.27 2698.09 1620.45 2672.74C1637.96 2657.17 1655.31 2653.72 1677.21 2661.39Z" fill="white"/>
<path d="M1480.13 2665.72C1498.42 2675.42 1512.89 2689.14 1522.23 2707.81C1522.56 2715.41 1522.66 2723.02 1522.65 2730.62C1522.65 2732.99 1522.66 2735.36 1522.66 2737.8C1522.66 2745.78 1522.65 2753.75 1522.63 2761.73C1522.62 2767.43 1522.63 2773.13 1522.63 2778.83C1522.63 2794.35 1522.61 2809.86 1522.58 2825.37C1522.56 2841.57 1522.56 2857.77 1522.56 2873.97C1522.54 2904.67 1522.52 2935.36 1522.48 2966.05C1522.44 3000.99 1522.42 3035.92 1522.4 3070.86C1522.37 3142.74 1522.3 3214.61 1522.23 3286.49C1485.19 3286.49 1448.14 3286.49 1409.98 3286.49C1409.58 3211.98 1409.26 3137.48 1409.07 3062.97C1408.98 3028.37 1408.86 2993.77 1408.66 2959.17C1408.48 2929.02 1408.37 2898.86 1408.33 2868.7C1408.31 2852.73 1408.25 2836.77 1408.12 2820.8C1408.01 2805.76 1407.97 2790.73 1408 2775.69C1407.99 2770.18 1407.96 2764.67 1407.89 2759.17C1407.25 2704.23 1407.25 2704.23 1427.52 2683.26C1444.62 2669.92 1458.31 2663.58 1480.13 2665.72Z" fill="white"/>
<path d="M2048.39 2714.82C2063.81 2724.81 2076.53 2736.17 2083.47 2753.4C2084.34 2763.39 2084.34 2763.39 2084.34 2775.17C2084.35 2779.64 2084.37 2784.11 2084.38 2788.72C2084.36 2793.66 2084.34 2798.61 2084.32 2803.55C2084.33 2808.77 2084.33 2813.98 2084.34 2819.19C2084.36 2833.35 2084.33 2847.5 2084.3 2861.65C2084.27 2876.44 2084.27 2891.24 2084.28 2906.03C2084.27 2930.86 2084.24 2955.7 2084.19 2980.53C2084.14 3009.28 2084.12 3038.03 2084.12 3066.77C2084.12 3094.4 2084.11 3122.02 2084.08 3149.65C2084.07 3161.42 2084.06 3173.19 2084.06 3184.97C2084.05 3198.81 2084.03 3212.65 2084 3226.5C2083.99 3231.59 2083.98 3236.69 2083.98 3241.78C2083.99 3248.7 2083.96 3255.63 2083.94 3262.55C2083.93 3266.44 2083.93 3270.32 2083.92 3274.32C2083.47 3282.99 2083.47 3282.99 2079.96 3286.49C2071.93 3286.8 2063.88 3286.87 2055.83 3286.84C2052.22 3286.83 2052.22 3286.83 2048.54 3286.82C2040.81 3286.8 2033.09 3286.76 2025.37 3286.71C2020.15 3286.69 2014.93 3286.68 2009.71 3286.66C1996.88 3286.63 1984.05 3286.56 1971.22 3286.49C1966.51 3277.07 1967.25 3269.79 1967.22 3259.23C1967.2 3254.92 1967.18 3250.6 1967.16 3246.16C1967.16 3241.36 1967.15 3236.55 1967.15 3231.75C1967.13 3226.7 1967.12 3221.66 1967.1 3216.62C1967.05 3202.91 1967.03 3189.19 1967.01 3175.47C1967 3166.9 1966.99 3158.33 1966.97 3149.76C1966.92 3122.93 1966.89 3096.11 1966.88 3069.29C1966.86 3038.34 1966.8 3007.38 1966.7 2976.43C1966.62 2952.5 1966.59 2928.58 1966.58 2904.65C1966.58 2890.36 1966.56 2876.07 1966.5 2861.78C1966.44 2848.33 1966.43 2834.88 1966.46 2821.43C1966.46 2816.5 1966.45 2811.57 1966.41 2806.65C1966.06 2753.07 1966.06 2753.07 1985.03 2731.73C1987.42 2729.77 1989.81 2727.8 1992.27 2725.78C1994.66 2723.77 1997.04 2721.75 1999.5 2719.67C2014.98 2708.63 2030.81 2709.69 2048.39 2714.82Z" fill="white"/>
<path d="M1305.98 2715.4C1321.48 2725.24 1331.48 2733.23 1339.82 2749.89C1341.12 2760.49 1341.12 2760.49 1341.09 2772.51C1341.1 2777.08 1341.12 2781.65 1341.13 2786.35C1341.1 2791.39 1341.06 2796.43 1341.02 2801.47C1341.02 2806.79 1341.02 2812.11 1341.02 2817.44C1341.03 2831.87 1340.96 2846.3 1340.89 2860.74C1340.83 2875.83 1340.82 2890.92 1340.81 2906.01C1340.77 2934.58 1340.69 2963.14 1340.58 2991.71C1340.46 3024.24 1340.41 3056.77 1340.35 3089.29C1340.24 3156.19 1340.06 3223.1 1339.82 3290C1324.97 3290.17 1310.11 3290.3 1295.25 3290.39C1290.19 3290.42 1285.14 3290.47 1280.08 3290.53C1272.82 3290.61 1265.56 3290.65 1258.3 3290.68C1251.74 3290.74 1251.74 3290.74 1245.05 3290.8C1234.59 3290 1234.59 3290 1227.58 3282.99C1226.66 3273.98 1226.66 3273.98 1226.61 3262.36C1226.58 3257.96 1226.54 3253.57 1226.51 3249.04C1226.5 3244.14 1226.5 3239.24 1226.5 3234.34C1226.47 3229.2 1226.44 3224.07 1226.41 3218.93C1226.33 3204.94 1226.3 3190.95 1226.29 3176.97C1226.27 3168.23 1226.25 3159.49 1226.23 3150.75C1226.14 3120.24 1226.09 3089.74 1226.08 3059.23C1226.07 3030.82 1225.97 3002.41 1225.82 2974C1225.7 2949.6 1225.64 2925.2 1225.64 2900.8C1225.64 2886.23 1225.61 2871.66 1225.51 2857.09C1225.41 2843.37 1225.41 2829.65 1225.46 2815.93C1225.47 2810.91 1225.45 2805.89 1225.39 2800.86C1225.09 2772.6 1225.53 2750.56 1245.11 2728.85C1262.81 2712.42 1282.7 2703.88 1305.98 2715.4Z" fill="white"/>
<path d="M2245.92 2750.55C2258.26 2758.87 2266.25 2768.18 2272.89 2781.46C2277.23 2815.69 2276.92 2850.25 2276.86 2884.69C2276.87 2890.25 2276.87 2895.8 2276.88 2901.36C2276.89 2916.14 2276.87 2930.92 2276.85 2945.71C2276.84 2954.87 2276.83 2964.04 2276.83 2973.2C2276.77 3078.83 2275.5 3184.4 2272.89 3290C2258.1 3290.35 2243.31 3290.6 2228.51 3290.77C2223.48 3290.84 2218.44 3290.94 2213.41 3291.06C2206.18 3291.23 2198.94 3291.31 2191.7 3291.37C2187.35 3291.44 2183 3291.52 2178.51 3291.59C2167.66 3290 2167.66 3290 2161.8 3285.01C2154.58 3271.01 2155.73 3257.56 2155.88 3242.03C2155.88 3238.59 2155.87 3235.14 2155.86 3231.59C2155.85 3220.13 2155.92 3208.68 2155.98 3197.22C2155.99 3189.18 2156 3181.13 2156 3173.09C2156.02 3156.14 2156.07 3139.19 2156.15 3122.24C2156.25 3100.86 2156.28 3079.49 2156.3 3058.1C2156.34 3006.8 2156.64 2955.51 2157.13 2904.21C2157.16 2901.02 2157.19 2897.82 2157.22 2894.53C2157.36 2877.99 2157.57 2861.46 2157.93 2844.93C2158.06 2838.15 2158.13 2831.36 2158.21 2824.57C2158.93 2798.16 2161.86 2777.09 2181.07 2757.35C2203.14 2744.03 2221.52 2741.81 2245.92 2750.55Z" fill="white"/>
<path d="M1115.33 2746.39C1134.34 2751.92 1144.62 2759.44 1154.41 2777.11C1160.55 2793.13 1159.26 2810.06 1159.07 2827C1159.08 2831.17 1159.08 2835.35 1159.09 2839.66C1159.1 2851.07 1159.04 2862.49 1158.96 2873.9C1158.88 2885.93 1158.89 2897.95 1158.88 2909.97C1158.86 2930.2 1158.78 2950.43 1158.67 2970.65C1158.53 2996.43 1158.47 3022.2 1158.43 3047.97C1158.41 3070.32 1158.34 3092.66 1158.28 3115C1158.26 3119.75 1158.25 3124.5 1158.24 3129.25C1158.1 3181.77 1157.68 3234.09 1153.91 3286.49C1138.49 3286.58 1123.07 3286.64 1107.65 3286.69C1102.4 3286.7 1097.14 3286.73 1091.89 3286.76C1084.36 3286.8 1076.83 3286.82 1069.3 3286.84C1064.76 3286.85 1060.23 3286.87 1055.55 3286.89C1045.17 3286.49 1045.17 3286.49 1041.66 3282.99C1041.32 3277.39 1041.22 3271.77 1041.22 3266.17C1041.21 3262.52 1041.2 3258.88 1041.19 3255.13C1041.19 3251.1 1041.2 3247.07 1041.21 3242.91C1041.2 3238.69 1041.2 3234.47 1041.19 3230.12C1041.18 3218.5 1041.18 3206.87 1041.19 3195.24C1041.2 3183.04 1041.19 3170.84 1041.19 3158.64C1041.18 3138.1 1041.19 3117.55 1041.21 3097C1041.22 3073.38 1041.22 3049.75 1041.2 3026.13C1041.18 3005.79 1041.18 2985.45 1041.19 2965.11C1041.2 2952.99 1041.2 2940.87 1041.19 2928.75C1041.13 2842 1041.13 2842 1042.57 2807.96C1042.73 2803.92 1042.89 2799.88 1043.05 2795.71C1046.53 2778.08 1056.52 2766.86 1068.41 2753.84C1084.55 2743.68 1096.74 2743.35 1115.33 2746.39Z" fill="white"/>
<path d="M1890.54 810.426C1913.14 811.005 1927.48 823.481 1943.16 838.483C1971.35 872.033 1978.13 906.497 1975.47 949.591C1971.56 992.514 1962.4 1032.96 1939.65 1069.96C1937.69 1073.18 1935.73 1076.39 1933.71 1079.71C1929.64 1086.2 1925.5 1092.65 1921.29 1099.04C1917.24 1105.25 1913.33 1111.54 1909.56 1117.92C1894.05 1143.93 1875.13 1164.89 1854.28 1186.61C1844.26 1197.09 1834.42 1207.74 1824.55 1218.35C1811.73 1232.14 1798.85 1245.86 1785.76 1259.4C1753.72 1292.7 1726.2 1326.63 1702.08 1366.07C1700.49 1368.66 1698.9 1371.26 1697.26 1373.93C1694.19 1378.99 1691.16 1384.08 1688.18 1389.19C1684.58 1395.18 1680.61 1400.94 1676.57 1406.65C1673.1 1406.65 1669.62 1406.65 1666.05 1406.65C1650.37 1352.38 1662.02 1286.82 1687.87 1238.03C1698.72 1220.2 1711.94 1204.85 1725.68 1189.2C1729.29 1184.99 1732.89 1180.78 1736.49 1176.57C1754.46 1155.6 1772.67 1134.92 1791.45 1114.67C1806.32 1098.6 1820.31 1082.04 1834.01 1064.96C1840.95 1056.51 1848.22 1048.56 1855.69 1040.58C1893.41 998.423 1916.98 947.445 1917.1 890.694C1914.42 872.419 1907.01 859.575 1896.71 844.472C1890.16 834.701 1886.88 829.744 1887.93 817.783C1888.79 815.355 1889.65 812.927 1890.54 810.426Z" fill="white"/>
</g>
<defs>
<clipPath id="clip0_131_21">
<rect width="2708" height="2932" fill="white" transform="translate(291 358)"/>
</clipPath>
</defs>
</svg>
