<svg width="782" height="812" viewBox="0 0 782 812" fill="none" xmlns="http://www.w3.org/2000/svg">
<path d="M277.562 149.506C279.515 147.471 280.939 144.786 281.834 141.449C282.811 138.113 283.299 134.044 283.299 129.242V65.2773L274.51 70.0381V65.0332C279.718 62.429 285.008 59.4587 290.379 56.1221C295.75 52.7041 301.284 48.9199 306.98 44.7695V110.199C306.98 119.965 304.865 127.696 300.633 133.393C296.401 139.089 288.711 144.46 277.562 149.506ZM222.264 40.9854C223.891 28.2087 227.96 18.972 234.471 13.2754C240.981 7.57878 250.91 4.73047 264.256 4.73047C272.964 4.73047 285.211 5.8291 300.999 8.02637C316.787 10.1423 328.221 11.2002 335.301 11.2002C341.16 11.2002 346.043 10.9154 349.949 10.3457C353.855 9.69466 357.396 8.67741 360.569 7.29395C358.047 13.0719 354.669 18.1175 350.438 22.4307C346.287 26.6624 341.323 29.999 335.545 32.4404V143.524C338.068 141.083 340.672 138.316 343.357 135.224C346.043 132.131 348.688 128.795 351.292 125.214C347.711 144.338 339.98 159.516 328.099 170.746C316.217 181.895 302.016 187.47 285.496 187.47C267.267 187.47 252.293 181.326 240.574 169.037C228.855 156.667 222.996 140.757 222.996 121.308C222.996 104.625 226.455 89.3659 233.372 75.5312C240.289 61.6152 250.096 50.1813 262.791 41.2295C256.199 51.5648 251.438 61.4118 248.509 70.7705C245.66 80.1292 244.236 89.9355 244.236 100.189C244.236 118.337 248.427 132.904 256.81 143.891C265.192 154.796 276.178 160.248 289.769 160.248C296.36 160.248 303.237 159.068 310.398 156.708C317.56 154.267 324.681 150.767 331.761 146.21V33.5391C328.343 34.4342 325.21 35.126 322.361 35.6143C319.513 36.0212 316.909 36.2246 314.549 36.2246C310.48 36.2246 300.796 35.3701 285.496 33.6611C270.278 31.8708 257.216 30.9756 246.312 30.9756C239.964 30.9756 234.878 31.7894 231.053 33.417C227.228 34.9632 224.298 37.486 222.264 40.9854ZM362.4 172.455C362.807 168.549 364.15 165.253 366.429 162.567C368.707 159.8 372.003 157.44 376.316 155.487V43.5488C376.316 37.1198 375.747 32.4404 374.607 29.5107C373.549 26.4997 371.678 23.6514 368.992 20.9658C375.421 19.0127 381.443 16.4492 387.059 13.2754C392.755 10.1016 398.574 5.99186 404.515 0.946289C402.073 7.78223 400.283 14.9844 399.144 22.5527C398.086 30.1211 397.557 39.846 397.557 51.7275V89.2031L434.544 58.4414C437.555 63.7311 440.647 67.6374 443.821 70.1602C446.995 72.6829 450.413 73.9443 454.075 73.9443C455.621 73.9443 457.127 73.7002 458.592 73.2119C460.057 72.7236 461.684 71.9098 463.475 70.7705C463.068 74.3512 462.05 77.4844 460.423 80.1699C458.795 82.7741 456.354 85.2969 453.099 87.7383V151.947C453.099 156.749 453.424 160.696 454.075 163.788C454.808 166.881 455.947 169.932 457.493 172.943C455.052 172.292 452.732 171.804 450.535 171.479C448.419 171.153 446.344 170.99 444.31 170.99C439.996 170.99 436.253 172.089 433.079 174.286C429.905 176.483 428.318 178.965 428.318 181.732C428.318 184.092 430.719 188.08 435.521 193.695C440.403 199.392 442.845 204.926 442.845 210.297C442.845 215.749 441.136 220.307 437.718 223.969C434.3 227.631 429.946 229.625 424.656 229.95C427.016 227.916 428.807 225.434 430.027 222.504C431.248 219.656 431.858 216.319 431.858 212.494C431.858 207.123 430.678 201.06 428.318 194.306C425.958 187.632 424.778 183.686 424.778 182.465C424.778 180.105 425.877 177.338 428.074 174.164C430.353 170.99 431.492 167.776 431.492 164.521V91.2783C428.969 90.6273 426.569 89.4473 424.29 87.7383C422.011 85.9479 419.285 83.0182 416.111 78.9492L397.557 94.208V155.487C400.812 156.871 403.945 158.498 406.956 160.37C409.967 162.242 412.815 164.358 415.501 166.718C410.049 169.322 405.206 172.13 400.975 175.141C396.743 178.07 392.999 181.285 389.744 184.784C387.465 180.552 384.373 177.175 380.467 174.652C376.561 172.048 372.654 170.746 368.748 170.746C368.097 170.746 367.283 170.868 366.307 171.112C365.33 171.356 364.028 171.804 362.4 172.455ZM520.726 74.5547L513.279 76.5078V132.782L543.064 112.763L520.726 74.5547ZM478.489 175.019C478.489 170.543 479.547 166.718 481.663 163.544C483.86 160.37 487.075 157.929 491.307 156.22V96.7715C491.307 92.2142 490.737 88.2673 489.598 84.9307C488.458 81.5941 486.668 78.5423 484.227 75.7754H492.771C501.886 75.7754 510.96 74.1478 519.993 70.8926C529.108 67.556 536.269 63.3242 541.478 58.1973C543.919 66.1725 547.256 73.863 551.487 81.2686C555.719 88.6742 560.643 95.4287 566.258 101.532L513.279 137.543V153.9C519.871 154.714 525.853 156.057 531.224 157.929C536.676 159.8 541.355 162.16 545.262 165.009L552.22 159.516L554.539 162.445L527.317 186.493C522.19 182.017 516.494 178.559 510.228 176.117C504.043 173.676 497.736 172.455 491.307 172.455C489.028 172.455 486.831 172.659 484.715 173.065C482.68 173.472 480.605 174.123 478.489 175.019ZM99.7051 450.027C101.658 451.085 103.489 452.265 105.198 453.567C106.907 454.869 108.576 456.253 110.203 457.718L117.039 455.521V428.543C115.574 427.811 114.028 427.241 112.4 426.834C110.854 426.427 109.308 426.224 107.762 426.224C106.541 426.224 104.1 426.753 100.438 427.811L99.8271 427.933L99.7051 450.027ZM99.8271 424.515C102.024 424.026 103.774 423.701 105.076 423.538C106.46 423.375 107.599 423.294 108.494 423.294C109.471 423.294 110.651 423.416 112.034 423.66C113.418 423.823 115.086 424.067 117.039 424.393V404.739C115.737 405.065 114.435 405.309 113.133 405.472C111.912 405.634 110.285 405.716 108.25 405.716C107.68 405.716 106.582 405.634 104.954 405.472C103.408 405.309 101.699 405.065 99.8271 404.739V424.515ZM99.7051 400.955C101.658 401.525 103.367 401.932 104.832 402.176C106.378 402.42 107.762 402.542 108.982 402.542C110.366 402.542 111.709 402.42 113.011 402.176C114.313 401.85 115.656 401.362 117.039 400.711V390.945C117.039 387.039 116.429 384.272 115.208 382.645C114.069 381.017 112.156 380.203 109.471 380.203C108.494 380.203 107.721 380.285 107.151 380.447C106.582 380.529 106.093 380.651 105.687 380.813L99.7051 386.307V400.955ZM57.4688 437.21C60.2357 434.362 62.2295 431.635 63.4502 429.031C64.6709 426.346 65.2812 423.497 65.2812 420.486V354.446C65.2812 346.552 66.624 340.083 69.3096 335.037C71.9951 329.992 77.4883 324.661 85.7891 319.046L109.593 302.444L109.959 302.2C116.551 297.724 120.579 295.486 122.044 295.486C126.276 295.486 130.385 298.335 134.373 304.031C138.442 309.646 140.477 316.32 140.477 324.051C140.477 334.223 138.117 343.501 133.396 351.883C128.676 360.265 121.149 368.444 110.813 376.419C123.509 376.582 131.565 377.843 134.983 380.203C138.483 382.482 140.232 387.405 140.232 394.974V447.952C140.232 451.289 140.436 453.812 140.843 455.521C141.331 457.229 142.023 458.694 142.918 459.915C140.558 459.59 138.157 459.305 135.716 459.061C133.356 458.816 131.118 458.694 129.002 458.694C119.887 458.694 112.197 460.322 105.931 463.577C99.7458 466.832 94.5374 471.959 90.3057 478.958C85.1787 474.726 79.6449 471.634 73.7041 469.681C67.8447 467.728 61.0495 466.751 53.3184 466.751C47.1335 466.751 41.3148 467.646 35.8623 469.437C30.4912 471.146 24.7946 473.994 18.7725 477.981C25.1201 467.809 33.2174 459.752 43.0645 453.812C52.9928 447.789 63.0433 444.778 73.2158 444.778C77.9359 444.778 82.0863 445.104 85.667 445.755C89.3291 446.325 92.8691 447.342 96.2871 448.807V367.752H99.7051V381.302C106.134 375.849 110.854 369.99 113.865 363.724C116.958 357.457 118.504 350.459 118.504 342.728C118.504 335.241 117.365 328.934 115.086 323.807C112.889 318.598 109.43 314.326 104.71 310.989L97.752 315.262C94.2526 317.459 91.6484 320.185 89.9395 323.44C88.3118 326.696 87.498 330.805 87.498 335.77V399.246C87.498 410.639 85.2601 419.103 80.7842 424.637C76.3083 430.171 68.5365 434.362 57.4688 437.21ZM0.950195 324.539C3.06608 315.587 7.17578 308.507 13.2793 303.299C19.4642 298.09 26.7884 295.486 35.252 295.486C39.7279 295.486 46.1569 296.707 54.5391 299.148C63.0026 301.59 69.391 302.811 73.7041 302.811C77.3662 302.811 80.5807 302.363 83.3477 301.468C86.196 300.491 89.0036 298.986 91.7705 296.951C87.7829 305.577 82.3304 312.21 75.4131 316.849C68.5771 321.487 60.7646 323.807 51.9756 323.807C47.9066 323.807 42.21 322.749 34.8857 320.633C27.6429 318.517 22.2718 317.459 18.7725 317.459C15.029 317.459 11.7331 318.029 8.88477 319.168C6.03646 320.307 3.3916 322.098 0.950195 324.539ZM25.9746 454.544C27.8464 451.696 29.1891 448.807 30.0029 445.877C30.8167 442.866 31.2236 439.244 31.2236 435.013V398.514C30.8981 398.432 30.5319 398.392 30.125 398.392C28.416 398.147 27.1139 398.025 26.2188 398.025C23.3704 398.025 21.1325 398.717 19.5049 400.101C17.8773 401.484 16.7786 403.6 16.209 406.448C14.9069 404.495 13.971 402.42 13.4014 400.223C12.8317 398.025 12.5469 395.381 12.5469 392.288C12.5469 386.998 13.7676 382.767 16.209 379.593C18.6504 376.338 21.8242 374.71 25.7305 374.71C26.9512 374.71 27.887 374.751 28.5381 374.832C29.1891 374.913 29.8402 375.035 30.4912 375.198V371.292C30.4912 361.119 32.8919 352.941 37.6934 346.756C42.4948 340.49 50.2666 335.566 61.0088 331.985C58.2419 335.322 56.2887 338.618 55.1494 341.873C54.0915 345.128 53.5625 349.238 53.5625 354.202V419.266C53.5625 426.508 51.3245 432.978 46.8486 438.675C42.4541 444.29 35.4961 449.58 25.9746 454.544ZM221.409 449.051V383.011C219.293 381.953 217.422 380.61 215.794 378.982C214.248 377.355 212.701 375.198 211.155 372.513C207.249 374.384 203.628 375.809 200.291 376.785C196.954 377.762 193.943 378.25 191.258 378.25C188.816 378.25 186.375 377.843 183.934 377.029C181.492 376.215 178.766 374.873 175.755 373.001L212.254 419.51L208.958 421.951L193.943 402.786C191.258 406.611 189.305 410.354 188.084 414.017C186.863 417.597 186.253 421.422 186.253 425.491C186.253 433.222 188.654 439.733 193.455 445.022C198.257 450.312 205.011 453.812 213.719 455.521L221.409 449.051ZM222.508 453.201L198.46 475.54C188.125 472.122 179.987 467.117 174.046 460.525C168.187 453.852 165.257 446.528 165.257 438.553C165.257 430.822 167.535 423.538 172.093 416.702C176.731 409.785 183.201 404.048 191.502 399.49L165.501 366.531H165.989C169.896 366.531 174.005 365.148 178.318 362.381C182.713 359.533 187.27 355.341 191.99 349.808C193.862 356.481 196.1 361.526 198.704 364.944C201.308 368.281 204.319 369.949 207.737 369.949C211.399 369.949 215.265 368.322 219.334 365.066C223.484 361.73 228.082 356.481 233.128 349.319C233.453 354.121 234.878 357.986 237.4 360.916C240.005 363.846 243.26 365.311 247.166 365.311C247.898 365.311 248.875 365.148 250.096 364.822C251.398 364.497 252.741 364.049 254.124 363.479C253.636 365.84 252.537 368.077 250.828 370.193C249.201 372.228 246.759 374.425 243.504 376.785V433.548C243.504 440.384 244.684 445.348 247.044 448.44C249.404 451.451 253.188 452.957 258.396 452.957H260.96L242.405 476.028C236.953 473.587 232.64 470.617 229.466 467.117C226.373 463.618 224.054 458.979 222.508 453.201ZM304.661 443.802C308.893 445.348 312.474 447.342 315.403 449.783C318.414 452.225 320.937 455.195 322.972 458.694C325.657 457.881 328.302 457.107 330.906 456.375C333.51 455.643 335.993 455.032 338.353 454.544V381.302C334.609 379.918 331.435 378.331 328.831 376.541C326.308 374.751 324.07 372.472 322.117 369.705C318.943 371.984 313.328 374.669 305.271 377.762L304.661 378.006V443.802ZM268.895 463.943C269.546 460.037 270.929 456.578 273.045 453.567C275.242 450.556 278.375 447.789 282.444 445.267V335.77C282.444 328.852 281.875 323.766 280.735 320.511C279.596 317.256 277.684 314.285 274.998 311.6C275.486 311.6 276.015 311.64 276.585 311.722C277.236 311.722 277.928 311.722 278.66 311.722C281.753 311.722 286.717 310.216 293.553 307.205C300.389 304.113 306.492 300.288 311.863 295.73C309.34 300.939 307.509 306.229 306.37 311.6C305.231 316.889 304.661 324.458 304.661 334.305V373.978C310.765 371.455 317.275 368.118 324.192 363.968C331.191 359.736 338.515 354.731 346.165 348.953C348.281 354.406 350.926 358.597 354.1 361.526C357.355 364.375 360.976 365.799 364.964 365.799C365.696 365.799 367.08 365.555 369.114 365.066C369.684 364.904 370.132 364.782 370.457 364.7C369.48 367.223 368.178 369.461 366.551 371.414C365.005 373.367 363.051 375.239 360.691 377.029V435.013C360.691 439.082 361.098 442.988 361.912 446.731C362.726 450.475 364.069 454.585 365.94 459.061C361.627 458.41 358.413 458.003 356.297 457.84C354.181 457.596 352.309 457.474 350.682 457.474C341.404 457.474 332.778 459.02 324.803 462.112C316.827 465.205 308.771 470.088 300.633 476.761C297.133 472.448 293.268 469.111 289.036 466.751C284.886 464.391 280.695 463.211 276.463 463.211C275.324 463.211 274.144 463.292 272.923 463.455C271.702 463.536 270.359 463.699 268.895 463.943ZM418.187 444.9C424.371 445.307 430.271 446.487 435.887 448.44C441.502 450.394 446.263 452.916 450.169 456.009L457.127 450.271L459.69 453.201L432.469 477.493C425.958 472.61 419.855 469.03 414.158 466.751C408.462 464.391 402.806 463.211 397.19 463.211C394.83 463.211 392.511 463.455 390.232 463.943C387.954 464.432 385.594 465.205 383.152 466.263C383.152 462.031 384.21 458.369 386.326 455.276C388.442 452.103 391.575 449.498 395.726 447.464V387.527C395.726 382.238 395.197 378.128 394.139 375.198C393.162 372.269 391.535 369.461 389.256 366.775C390.314 366.857 391.412 366.938 392.552 367.02C393.772 367.02 395.481 367.02 397.679 367.02C405.654 367.02 413.833 365.473 422.215 362.381C430.678 359.207 437.229 355.26 441.868 350.54C444.472 354.772 447.402 358.027 450.657 360.306C453.994 362.584 457.412 363.724 460.911 363.724C461.969 363.724 463.556 363.602 465.672 363.357C465.997 363.276 466.242 363.235 466.404 363.235C462.986 368.525 459.243 372.513 455.174 375.198C451.186 377.884 447.036 379.227 442.723 379.227C437.921 379.227 433.812 378.087 430.394 375.809C426.976 373.449 424.656 370.193 423.436 366.043L418.187 367.752V444.9ZM508.519 443.558C512.75 445.104 516.331 447.098 519.261 449.539C522.272 451.98 524.795 454.951 526.829 458.45C528.538 457.881 530.532 457.311 532.811 456.741C535.171 456.172 538.385 455.439 542.454 454.544L542.576 381.058C538.914 380.244 535.618 378.738 532.688 376.541C529.759 374.262 526.788 371.007 523.777 366.775C522.801 367.02 521.377 367.426 519.505 367.996C514.622 369.38 510.96 370.315 508.519 370.804V443.558ZM472.752 463.943C473.403 460.037 474.786 456.578 476.902 453.567C479.1 450.556 482.233 447.789 486.302 445.267V388.26C486.302 384.109 485.854 380.488 484.959 377.396C484.145 374.222 482.762 371.007 480.809 367.752C482.029 367.833 483.372 367.915 484.837 367.996C486.383 367.996 488.458 367.996 491.062 367.996C502.049 367.996 512.506 366.409 522.435 363.235C532.444 359.98 541.64 355.219 550.022 348.953C552.138 354.406 554.783 358.597 557.957 361.526C561.212 364.375 564.834 365.799 568.821 365.799C569.554 365.799 570.937 365.555 572.972 365.066C573.541 364.904 573.989 364.782 574.314 364.7C573.257 367.386 571.954 369.705 570.408 371.658C568.862 373.611 566.909 375.402 564.549 377.029V431.473C564.549 437.007 564.956 441.93 565.77 446.243C566.583 450.556 567.926 454.829 569.798 459.061C565.485 458.41 562.27 458.003 560.154 457.84C558.038 457.596 556.167 457.474 554.539 457.474C545.262 457.474 536.635 459.02 528.66 462.112C520.685 465.205 512.628 470.088 504.49 476.761C500.991 472.448 497.125 469.111 492.894 466.751C488.743 464.391 484.552 463.211 480.32 463.211C479.181 463.211 478.001 463.292 476.78 463.455C475.56 463.536 474.217 463.699 472.752 463.943ZM622.044 444.9C628.229 445.307 634.129 446.487 639.744 448.44C645.359 450.394 650.12 452.916 654.026 456.009L660.984 450.271L663.548 453.201L636.326 477.493C629.816 472.61 623.712 469.03 618.016 466.751C612.319 464.391 606.663 463.211 601.048 463.211C598.688 463.211 596.368 463.455 594.09 463.943C591.811 464.432 589.451 465.205 587.01 466.263C587.01 462.031 588.068 458.369 590.184 455.276C592.299 452.103 595.433 449.498 599.583 447.464V387.527C599.583 382.238 599.054 378.128 597.996 375.198C597.02 372.269 595.392 369.461 593.113 366.775C594.171 366.857 595.27 366.938 596.409 367.02C597.63 367.02 599.339 367.02 601.536 367.02C609.511 367.02 617.69 365.473 626.072 362.381C634.536 359.207 641.087 355.26 645.726 350.54C648.33 354.772 651.259 358.027 654.515 360.306C657.851 362.584 661.269 363.724 664.769 363.724C665.826 363.724 667.413 363.602 669.529 363.357C669.855 363.276 670.099 363.235 670.262 363.235C666.844 368.525 663.1 372.513 659.031 375.198C655.044 377.884 650.893 379.227 646.58 379.227C641.779 379.227 637.669 378.087 634.251 375.809C630.833 373.449 628.514 370.193 627.293 366.043L622.044 367.752V444.9ZM713.353 379.471L750.584 351.517C752.781 358.597 755.426 364.944 758.519 370.56C761.611 376.175 764.907 380.569 768.406 383.743L742.649 403.274C745.66 405.716 748.143 408.768 750.096 412.43C752.13 416.092 753.961 421.382 755.589 428.299C757.868 437.413 760.553 444.249 763.646 448.807C766.738 453.283 770.237 455.521 774.144 455.521C774.957 455.521 775.812 455.358 776.707 455.032C777.602 454.625 778.538 454.056 779.515 453.323L781.59 456.009C776.382 459.752 771.784 463.618 767.796 467.605C763.89 471.512 760.919 475.215 758.885 478.714C753.514 477.168 749.282 473.953 746.189 469.07C743.097 464.106 740.493 456.334 738.377 445.755C736.749 437.617 734.959 431.31 733.006 426.834C731.134 422.358 728.774 418.899 725.926 416.458L713.353 426.712V449.051C716.445 450.353 719.212 451.899 721.653 453.689C724.095 455.398 726.333 457.433 728.367 459.793C724.542 461.665 720.799 463.943 717.137 466.629C713.556 469.314 709.65 472.692 705.418 476.761C700.779 471.797 696.67 468.379 693.089 466.507C689.59 464.635 685.765 463.699 681.614 463.699C680.719 463.699 680.027 463.74 679.539 463.821C679.051 463.821 678.603 463.862 678.196 463.943C679.01 460.688 680.516 457.84 682.713 455.398C684.91 452.876 687.799 450.76 691.38 449.051V334.061C691.38 328.12 690.81 323.603 689.671 320.511C688.532 317.337 686.619 314.326 683.934 311.478C684.422 311.559 684.951 311.64 685.521 311.722C686.172 311.722 686.863 311.722 687.596 311.722C690.688 311.722 695.612 310.216 702.366 307.205C709.121 304.113 715.224 300.288 720.677 295.73C718.235 300.939 716.404 306.106 715.184 311.233C713.963 316.36 713.353 321.447 713.353 326.492V379.471ZM713.353 421.463L748.631 393.997C746.027 389.928 743.585 385.737 741.307 381.424C739.028 377.111 736.953 372.716 735.081 368.24L713.353 383.987V421.463ZM185.276 731.506C187.229 729.471 188.654 726.786 189.549 723.449C190.525 720.113 191.014 716.044 191.014 711.242V647.277L182.225 652.038V647.033C187.433 644.429 192.723 641.459 198.094 638.122C203.465 634.704 208.999 630.92 214.695 626.77V692.199C214.695 701.965 212.579 709.696 208.348 715.393C204.116 721.089 196.425 726.46 185.276 731.506ZM129.979 622.985C131.606 610.209 135.675 600.972 142.186 595.275C148.696 589.579 158.624 586.73 171.971 586.73C180.678 586.73 192.926 587.829 208.714 590.026C224.502 592.142 235.936 593.2 243.016 593.2C248.875 593.2 253.758 592.915 257.664 592.346C261.57 591.695 265.11 590.677 268.284 589.294C265.761 595.072 262.384 600.118 258.152 604.431C254.002 608.662 249.038 611.999 243.26 614.44V725.524C245.783 723.083 248.387 720.316 251.072 717.224C253.758 714.131 256.403 710.795 259.007 707.214C255.426 726.338 247.695 741.516 235.813 752.746C223.932 763.895 209.731 769.47 193.211 769.47C174.982 769.47 160.008 763.326 148.289 751.037C136.57 738.667 130.711 722.757 130.711 703.308C130.711 686.625 134.17 671.366 141.087 657.531C148.004 643.615 157.811 632.181 170.506 623.229C163.914 633.565 159.153 643.412 156.224 652.771C153.375 662.129 151.951 671.936 151.951 682.189C151.951 700.337 156.142 714.904 164.524 725.891C172.907 736.796 183.893 742.248 197.483 742.248C204.075 742.248 210.952 741.068 218.113 738.708C225.275 736.267 232.396 732.767 239.476 728.21V615.539C236.058 616.434 232.924 617.126 230.076 617.614C227.228 618.021 224.624 618.225 222.264 618.225C218.195 618.225 208.51 617.37 193.211 615.661C177.993 613.871 164.931 612.976 154.026 612.976C147.679 612.976 142.592 613.789 138.768 615.417C134.943 616.963 132.013 619.486 129.979 622.985ZM301.121 734.558C305.353 736.104 308.934 738.098 311.863 740.539C314.874 742.98 317.397 745.951 319.432 749.45C321.141 748.881 323.134 748.311 325.413 747.741C327.773 747.172 330.988 746.439 335.057 745.544L335.179 672.058C331.517 671.244 328.221 669.738 325.291 667.541C322.361 665.262 319.391 662.007 316.38 657.775C315.403 658.02 313.979 658.426 312.107 658.996C307.225 660.38 303.562 661.315 301.121 661.804V734.558ZM265.354 754.943C266.006 751.037 267.389 747.578 269.505 744.567C271.702 741.556 274.835 738.789 278.904 736.267V679.26C278.904 675.109 278.457 671.488 277.562 668.396C276.748 665.222 275.364 662.007 273.411 658.752C274.632 658.833 275.975 658.915 277.439 658.996C278.986 658.996 281.061 658.996 283.665 658.996C294.651 658.996 305.109 657.409 315.037 654.235C325.047 650.98 334.243 646.219 342.625 639.953C344.741 645.406 347.386 649.597 350.56 652.526C353.815 655.375 357.436 656.799 361.424 656.799C362.156 656.799 363.54 656.555 365.574 656.066C366.144 655.904 366.591 655.782 366.917 655.7C365.859 658.386 364.557 660.705 363.011 662.658C361.465 664.611 359.511 666.402 357.151 668.029V722.473C357.151 728.007 357.558 732.93 358.372 737.243C359.186 741.556 360.529 745.829 362.4 750.061C358.087 749.41 354.873 749.003 352.757 748.84C350.641 748.596 348.769 748.474 347.142 748.474C337.864 748.474 329.238 750.02 321.263 753.112C313.287 756.205 305.231 761.088 297.093 767.761C293.593 763.448 289.728 760.111 285.496 757.751C281.346 755.391 277.155 754.211 272.923 754.211C271.784 754.211 270.604 754.292 269.383 754.455C268.162 754.536 266.819 754.699 265.354 754.943ZM409.642 766.784C406.386 761.576 402.277 757.507 397.312 754.577C392.43 751.566 387.384 750.061 382.176 750.061C381.118 750.061 380.304 750.061 379.734 750.061C379.165 750.061 378.554 750.101 377.903 750.183C379.531 747.416 381.565 744.974 384.007 742.858C386.448 740.743 389.419 738.871 392.918 737.243V683.532C392.918 676.208 391.779 671.366 389.5 669.006C387.303 666.646 382.786 665.14 375.95 664.489C381.159 661.478 385.797 657.938 389.866 653.869C394.017 649.719 397.597 644.999 400.608 639.709C405.573 642.883 409.194 646.87 411.473 651.672C413.751 656.392 414.891 662.495 414.891 669.982L437.352 639.709C439.305 644.917 441.217 648.579 443.089 650.695C444.961 652.73 447.239 653.747 449.925 653.747C451.146 653.747 452.366 653.503 453.587 653.015C454.889 652.526 456.232 651.753 457.615 650.695C456.964 657.206 454.889 662.536 451.39 666.687C447.972 670.756 444.065 672.79 439.671 672.79C436.66 672.79 433.812 672.058 431.126 670.593C428.522 669.047 426.121 666.768 423.924 663.757L414.891 675.964V736.999C418.227 738.138 421.076 739.359 423.436 740.661C425.796 741.963 427.789 743.428 429.417 745.056L433.934 741.76L436.375 744.201C430.19 748.27 424.86 752.176 420.384 755.92C415.908 759.663 412.327 763.285 409.642 766.784ZM495.701 735.9C501.886 736.307 507.786 737.487 513.401 739.44C519.017 741.394 523.777 743.916 527.684 747.009L534.642 741.271L537.205 744.201L509.983 768.493C503.473 763.61 497.369 760.03 491.673 757.751C485.976 755.391 480.32 754.211 474.705 754.211C472.345 754.211 470.026 754.455 467.747 754.943C465.468 755.432 463.108 756.205 460.667 757.263C460.667 753.031 461.725 749.369 463.841 746.276C465.957 743.103 469.09 740.498 473.24 738.464V678.527C473.24 673.238 472.711 669.128 471.653 666.198C470.677 663.269 469.049 660.461 466.771 657.775C467.828 657.857 468.927 657.938 470.066 658.02C471.287 658.02 472.996 658.02 475.193 658.02C483.169 658.02 491.347 656.473 499.729 653.381C508.193 650.207 514.744 646.26 519.383 641.54C521.987 645.772 524.917 649.027 528.172 651.306C531.508 653.584 534.926 654.724 538.426 654.724C539.484 654.724 541.071 654.602 543.187 654.357C543.512 654.276 543.756 654.235 543.919 654.235C540.501 659.525 536.757 663.513 532.688 666.198C528.701 668.884 524.55 670.227 520.237 670.227C515.436 670.227 511.326 669.087 507.908 666.809C504.49 664.449 502.171 661.193 500.95 657.043L495.701 658.752V735.9ZM550.633 754.455C551.04 750.549 552.382 747.253 554.661 744.567C556.94 741.8 560.236 739.44 564.549 737.487V625.549C564.549 619.12 563.979 614.44 562.84 611.511C561.782 608.5 559.91 605.651 557.225 602.966C563.654 601.013 569.676 598.449 575.291 595.275C580.988 592.102 586.806 587.992 592.747 582.946C590.306 589.782 588.515 596.984 587.376 604.553C586.318 612.121 585.789 621.846 585.789 633.728V671.203L622.776 640.441C625.787 645.731 628.88 649.637 632.054 652.16C635.228 654.683 638.646 655.944 642.308 655.944C643.854 655.944 645.359 655.7 646.824 655.212C648.289 654.724 649.917 653.91 651.707 652.771C651.3 656.351 650.283 659.484 648.655 662.17C647.028 664.774 644.586 667.297 641.331 669.738V733.947C641.331 738.749 641.657 742.696 642.308 745.788C643.04 748.881 644.179 751.932 645.726 754.943C643.284 754.292 640.965 753.804 638.768 753.479C636.652 753.153 634.576 752.99 632.542 752.99C628.229 752.99 624.485 754.089 621.312 756.286C618.138 758.483 616.551 760.965 616.551 763.732C616.551 766.092 618.951 770.08 623.753 775.695C628.636 781.392 631.077 786.926 631.077 792.297C631.077 797.749 629.368 802.307 625.95 805.969C622.532 809.631 618.178 811.625 612.889 811.95C615.249 809.916 617.039 807.434 618.26 804.504C619.48 801.656 620.091 798.319 620.091 794.494C620.091 789.123 618.911 783.06 616.551 776.306C614.191 769.632 613.011 765.686 613.011 764.465C613.011 762.105 614.109 759.338 616.307 756.164C618.585 752.99 619.725 749.776 619.725 746.521V673.278C617.202 672.627 614.801 671.447 612.522 669.738C610.244 667.948 607.518 665.018 604.344 660.949L585.789 676.208V737.487C589.044 738.871 592.177 740.498 595.188 742.37C598.2 744.242 601.048 746.358 603.733 748.718C598.281 751.322 593.439 754.13 589.207 757.141C584.975 760.07 581.232 763.285 577.977 766.784C575.698 762.552 572.605 759.175 568.699 756.652C564.793 754.048 560.887 752.746 556.98 752.746C556.329 752.746 555.516 752.868 554.539 753.112C553.562 753.356 552.26 753.804 550.633 754.455Z" fill="black"/>
</svg>
