<svg width="2112" height="196" viewBox="0 0 2112 196" fill="none" xmlns="http://www.w3.org/2000/svg">
<path d="M151.71 62.7793H143.287C142.555 59.8496 141.212 56.391 139.259 52.4033C137.387 48.3343 135.271 44.5094 132.911 40.9287C130.47 37.1852 127.784 33.93 124.854 31.1631C122.006 28.3148 119.239 26.6872 116.554 26.2803C114.031 25.9548 110.857 25.7106 107.032 25.5479C103.207 25.3851 99.6673 25.3037 96.4121 25.3037H89.332V163.854C89.332 166.539 89.9017 169.021 91.041 171.3C92.1803 173.497 94.1742 175.206 97.0225 176.427C98.4873 176.996 101.539 177.77 106.178 178.746C110.898 179.723 114.56 180.252 117.164 180.333V189H35.377V180.333C37.6556 180.17 41.1143 179.845 45.7529 179.356C50.473 178.868 53.7282 178.258 55.5186 177.525C58.2041 176.467 60.1572 174.962 61.3779 173.009C62.68 170.974 63.3311 168.289 63.3311 164.952V25.3037H56.251C53.7282 25.3037 50.5951 25.3851 46.8516 25.5479C43.1081 25.6292 39.5273 25.8734 36.1094 26.2803C33.4238 26.6058 30.6162 28.2334 27.6865 31.1631C24.8382 34.0114 22.1934 37.2666 19.752 40.9287C17.3105 44.5908 15.154 48.4971 13.2822 52.6475C11.4105 56.7165 10.1084 60.0938 9.37598 62.7793H0.831055V15.7822H151.71V62.7793ZM293.312 189H234.229V180.943C236.101 180.781 238.176 180.618 240.455 180.455C242.734 180.292 244.605 179.967 246.07 179.479C248.349 178.746 250.017 177.485 251.075 175.694C252.215 173.823 252.784 171.422 252.784 168.492V106.603C252.784 98.0576 250.75 91.4658 246.681 86.8271C242.693 82.1885 237.81 79.8691 232.032 79.8691C227.8 79.8691 223.854 80.5609 220.191 81.9443C216.611 83.2464 213.396 84.874 210.548 86.8271C207.781 88.8617 205.665 90.8962 204.2 92.9307C202.735 94.9652 201.596 96.6742 200.782 98.0576V167.271C200.782 170.038 201.311 172.317 202.369 174.107C203.508 175.898 205.217 177.281 207.496 178.258C209.286 179.072 211.118 179.682 212.989 180.089C214.942 180.496 217.058 180.781 219.337 180.943V189H160.255V180.943C162.127 180.781 164.08 180.618 166.114 180.455C168.149 180.211 169.858 179.885 171.241 179.479C173.52 178.746 175.229 177.485 176.368 175.694C177.507 173.823 178.077 171.422 178.077 168.492V28.3555C178.077 25.5885 177.426 22.8216 176.124 20.0547C174.903 17.2878 173.276 15.2126 171.241 13.8291C169.776 12.7712 167.172 12.0387 163.429 11.6318C159.767 11.1436 156.796 10.818 154.518 10.6553V2.84277L199.073 0.0351562L200.782 1.86621V85.8506H201.271C203.956 83.165 206.397 80.805 208.595 78.7705C210.792 76.6546 213.681 74.4574 217.262 72.1787C220.354 70.2256 223.976 68.598 228.126 67.2959C232.358 65.9938 237.078 65.3428 242.286 65.3428C253.028 65.3428 261.288 68.7607 267.066 75.5967C272.844 82.3512 275.733 92.1169 275.733 104.894V167.516C275.733 170.364 276.222 172.683 277.198 174.474C278.256 176.183 279.965 177.525 282.325 178.502C284.197 179.234 285.865 179.804 287.33 180.211C288.876 180.536 290.87 180.781 293.312 180.943V189ZM415.016 160.68C409.97 170.283 403.215 177.932 394.752 183.629C386.288 189.326 376.563 192.174 365.577 192.174C355.893 192.174 347.389 190.465 340.064 187.047C332.822 183.629 326.84 178.99 322.12 173.131C317.4 167.271 313.86 160.436 311.5 152.623C309.221 144.811 308.082 136.55 308.082 127.843C308.082 120.03 309.303 112.381 311.744 104.894C314.267 97.3252 317.929 90.5299 322.73 84.5078C327.369 78.7298 333.106 74.0911 339.942 70.5918C346.86 67.0111 354.591 65.2207 363.136 65.2207C371.925 65.2207 379.452 66.6042 385.719 69.3711C391.985 72.138 397.071 75.9222 400.978 80.7236C404.721 85.2809 407.488 90.652 409.278 96.8369C411.15 103.022 412.086 109.736 412.086 116.979V125.035H332.374C332.374 132.929 333.106 140.09 334.571 146.52C336.118 152.949 338.518 158.604 341.773 163.487C344.947 168.207 349.098 171.951 354.225 174.718C359.352 177.403 365.455 178.746 372.535 178.746C379.778 178.746 386.004 177.078 391.212 173.741C396.502 170.323 401.588 164.22 406.471 155.431L415.016 160.68ZM388.038 114.781C388.038 110.224 387.631 105.341 386.817 100.133C386.085 94.9245 384.864 90.5706 383.155 87.0713C381.284 83.3278 378.72 80.276 375.465 77.916C372.21 75.556 368.019 74.376 362.892 74.376C354.347 74.376 347.226 77.9567 341.529 85.1182C335.914 92.1982 332.862 102.086 332.374 114.781H388.038ZM615.211 108.312C620.257 111.729 624.448 116.205 627.784 121.739C631.121 127.273 632.789 133.987 632.789 141.881C632.789 149.938 631.039 156.936 627.54 162.877C624.041 168.818 619.483 173.701 613.868 177.525C608.416 181.269 602.231 184.117 595.313 186.07C588.478 188.023 581.397 189 574.073 189H492.042V180.333C493.995 180.17 496.843 179.845 500.587 179.356C504.33 178.787 507.016 178.136 508.644 177.403C511.166 176.264 512.957 174.758 514.015 172.887C515.073 170.934 515.602 168.451 515.602 165.44V40.9287C515.602 38.1618 515.113 35.7204 514.137 33.6045C513.242 31.4886 511.41 29.7796 508.644 28.4775C506.202 27.2568 503.476 26.321 500.465 25.6699C497.454 25.0189 494.931 24.612 492.896 24.4492V15.7822H572.853C579.037 15.7822 584.938 16.3926 590.553 17.6133C596.249 18.834 601.661 20.9906 606.788 24.083C611.59 26.9313 615.536 30.7969 618.629 35.6797C621.721 40.5625 623.268 46.5033 623.268 53.502C623.268 59.6055 622.169 65.0579 619.972 69.8594C617.774 74.5794 614.682 78.6484 610.694 82.0664C606.951 85.3216 602.638 88.0885 597.755 90.3672C592.953 92.5645 587.745 94.2734 582.13 95.4941V96.5928C587.094 97.1624 592.628 98.4238 598.731 100.377C604.916 102.249 610.41 104.894 615.211 108.312ZM585.792 82.1885C588.803 78.6891 590.878 74.8643 592.018 70.7139C593.238 66.5635 593.849 61.64 593.849 55.9434C593.849 46.4219 591.244 38.9756 586.036 33.6045C580.828 28.152 572.608 25.4258 561.378 25.4258C558.774 25.4258 555.478 25.5072 551.49 25.6699C547.584 25.7513 544.288 25.8327 541.603 25.9141V92.4424H557.105C563.779 92.4424 569.475 91.5879 574.195 89.8789C578.997 88.1699 582.862 85.6064 585.792 82.1885ZM602.638 137.486C602.638 127.232 599.179 118.81 592.262 112.218C585.426 105.626 575.619 102.33 562.843 102.33C557.634 102.33 553.24 102.411 549.659 102.574C546.078 102.656 543.393 102.737 541.603 102.818V163.854C541.603 168.98 543.678 172.846 547.828 175.45C551.979 178.054 557.757 179.356 565.162 179.356C577.288 179.356 586.565 175.816 592.994 168.736C599.423 161.656 602.638 151.24 602.638 137.486ZM766.822 186.803C762.997 188.186 759.62 189.285 756.69 190.099C753.842 190.994 750.587 191.441 746.925 191.441C740.577 191.441 735.491 189.977 731.666 187.047C727.923 184.036 725.522 179.682 724.464 173.985H723.731C718.442 179.845 712.745 184.321 706.642 187.413C700.619 190.506 693.336 192.052 684.791 192.052C675.758 192.052 668.312 189.285 662.452 183.751C656.674 178.217 653.785 170.974 653.785 162.022C653.785 157.384 654.436 153.233 655.738 149.571C657.04 145.909 658.993 142.613 661.598 139.684C663.632 137.242 666.318 135.086 669.654 133.214C672.991 131.261 676.124 129.715 679.054 128.575C682.716 127.192 690.121 124.628 701.271 120.885C712.501 117.141 720.069 114.212 723.976 112.096V100.011C723.976 98.9528 723.731 96.9183 723.243 93.9072C722.836 90.8962 721.9 88.0479 720.436 85.3623C718.808 82.3512 716.489 79.7471 713.478 77.5498C710.548 75.2712 706.357 74.1318 700.904 74.1318C697.161 74.1318 693.661 74.7829 690.406 76.085C687.232 77.3057 684.994 78.6077 683.692 79.9912C683.692 81.6188 684.059 84.0195 684.791 87.1934C685.605 90.3672 686.012 93.2969 686.012 95.9824C686.012 98.8307 684.71 101.435 682.105 103.795C679.583 106.155 676.043 107.335 671.485 107.335C667.416 107.335 664.405 105.911 662.452 103.062C660.58 100.133 659.645 96.8776 659.645 93.2969C659.645 89.5534 660.947 85.9727 663.551 82.5547C666.236 79.1367 669.695 76.085 673.927 73.3994C677.589 71.1208 682.024 69.2083 687.232 67.6621C692.441 66.0345 697.527 65.2207 702.491 65.2207C709.327 65.2207 715.268 65.709 720.313 66.6855C725.44 67.5807 730.079 69.5745 734.229 72.667C738.38 75.6781 741.513 79.7878 743.629 84.9961C745.826 90.123 746.925 96.7555 746.925 104.894C746.925 116.531 746.803 126.866 746.559 135.899C746.314 144.851 746.192 154.658 746.192 165.318C746.192 168.492 746.721 171.015 747.779 172.887C748.919 174.758 750.628 176.345 752.906 177.647C754.127 178.38 756.039 178.787 758.644 178.868C761.329 178.95 764.055 178.99 766.822 178.99V186.803ZM724.22 122.35C717.302 124.384 711.24 126.378 706.031 128.331C700.823 130.284 695.981 132.726 691.505 135.655C687.436 138.422 684.221 141.718 681.861 145.543C679.501 149.286 678.321 153.762 678.321 158.971C678.321 165.725 680.071 170.689 683.57 173.863C687.151 177.037 691.668 178.624 697.12 178.624C702.898 178.624 707.984 177.241 712.379 174.474C716.773 171.625 720.476 168.289 723.487 164.464L724.22 122.35ZM900.978 128.697C900.978 146.764 895.281 161.941 883.888 174.229C872.494 186.518 859.27 192.662 844.215 192.662C837.623 192.662 831.113 191.645 824.684 189.61C818.336 187.576 812.354 184.85 806.739 181.432L797.706 195.47L790.138 193.761C790.545 187.739 790.829 180.496 790.992 172.032C791.155 163.569 791.236 155.39 791.236 147.496V28.3555C791.236 25.5885 790.585 22.8216 789.283 20.0547C788.062 17.2878 786.476 15.2939 784.522 14.0732C782.976 13.0153 780.372 12.2422 776.71 11.7539C773.129 11.1842 770.24 10.818 768.043 10.6553V2.84277L812.232 0.0351562L813.941 1.86621V81.2119L814.796 81.4561C819.841 76.085 825.335 72.0566 831.275 69.3711C837.298 66.6855 843.198 65.3428 848.976 65.3428C863.787 65.3428 876.157 71.2021 886.085 82.9209C896.013 94.6396 900.978 109.898 900.978 128.697ZM875.465 129.552C875.465 123.53 874.814 117.385 873.512 111.119C872.21 104.853 870.175 99.4004 867.408 94.7617C864.641 90.0417 861.02 86.2168 856.544 83.2871C852.068 80.3574 846.697 78.8926 840.431 78.8926C834.734 78.8926 829.729 80.0319 825.416 82.3105C821.184 84.5078 817.359 87.5189 813.941 91.3438V161.412C814.43 163.365 815.366 165.644 816.749 168.248C818.214 170.852 820.167 173.334 822.608 175.694C825.05 177.973 827.817 179.845 830.909 181.31C834.002 182.693 837.786 183.385 842.262 183.385C852.19 183.385 860.206 178.583 866.31 168.98C872.413 159.378 875.465 146.235 875.465 129.552ZM974.586 192.174C957.171 192.174 943.539 186.396 933.692 174.84C923.845 163.284 918.922 147.781 918.922 128.331C918.922 119.868 920.224 111.974 922.828 104.649C925.514 97.2438 929.379 90.5299 934.425 84.5078C939.226 78.7298 945.248 74.0911 952.491 70.5918C959.734 67.0111 967.628 65.2207 976.173 65.2207C987.973 65.2207 997.576 68.069 1004.98 73.7656C1012.39 79.3809 1016.09 87.0713 1016.09 96.8369C1016.09 100.906 1015.11 104.527 1013.16 107.701C1011.21 110.794 1007.99 112.34 1003.52 112.34C998.715 112.34 994.972 111.119 992.286 108.678C989.682 106.236 988.38 103.51 988.38 100.499C988.38 96.8369 988.868 93.0934 989.845 89.2686C990.821 85.3623 991.391 82.514 991.554 80.7236C990.089 78.2008 987.892 76.5326 984.962 75.7188C982.114 74.8236 979.021 74.376 975.685 74.376C971.778 74.376 968.035 75.2305 964.454 76.9395C960.955 78.5671 957.537 81.6188 954.2 86.0947C951.189 90.1637 948.748 95.6569 946.876 102.574C945.004 109.492 944.068 117.752 944.068 127.354C944.068 142.491 947.405 154.861 954.078 164.464C960.833 173.985 969.662 178.746 980.567 178.746C988.461 178.746 995.053 176.834 1000.34 173.009C1005.71 169.184 1010.68 163.447 1015.24 155.797L1023.05 160.924C1017.68 170.527 1010.6 178.136 1001.81 183.751C993.019 189.366 983.945 192.174 974.586 192.174ZM1149.76 127.599C1149.76 136.062 1148.41 144.404 1145.73 152.623C1143.04 160.761 1139.22 167.678 1134.25 173.375C1128.64 179.885 1122.13 184.728 1114.72 187.901C1107.32 191.075 1099.02 192.662 1089.82 192.662C1082.17 192.662 1074.89 191.238 1067.97 188.39C1061.05 185.46 1054.91 181.228 1049.54 175.694C1044.25 170.242 1040.02 163.609 1036.84 155.797C1033.75 147.903 1032.2 139.073 1032.2 129.308C1032.2 110.509 1037.66 95.1279 1048.56 83.165C1059.55 71.2021 1073.91 65.2207 1091.65 65.2207C1108.5 65.2207 1122.37 70.9173 1133.28 82.3105C1144.26 93.6224 1149.76 108.718 1149.76 127.599ZM1124.49 127.843C1124.49 121.739 1123.88 115.31 1122.66 108.556C1121.44 101.72 1119.61 95.9417 1117.16 91.2217C1114.56 86.1761 1111.14 82.1478 1106.91 79.1367C1102.68 76.0443 1097.51 74.498 1091.41 74.498C1085.14 74.498 1079.77 76.0443 1075.29 79.1367C1070.9 82.2292 1067.32 86.4609 1064.55 91.832C1061.95 96.7962 1060.12 102.452 1059.06 108.8C1058 115.147 1057.47 121.292 1057.47 127.232C1057.47 135.045 1058.08 142.288 1059.3 148.961C1060.6 155.553 1062.64 161.453 1065.41 166.661C1068.17 171.869 1071.63 175.979 1075.78 178.99C1080.01 181.92 1085.22 183.385 1091.41 183.385C1101.58 183.385 1109.64 178.461 1115.58 168.614C1121.52 158.767 1124.49 145.177 1124.49 127.843ZM1222.88 192.174C1205.46 192.174 1191.83 186.396 1181.98 174.84C1172.14 163.284 1167.21 147.781 1167.21 128.331C1167.21 119.868 1168.51 111.974 1171.12 104.649C1173.8 97.2438 1177.67 90.5299 1182.72 84.5078C1187.52 78.7298 1193.54 74.0911 1200.78 70.5918C1208.03 67.0111 1215.92 65.2207 1224.46 65.2207C1236.26 65.2207 1245.87 68.069 1253.27 73.7656C1260.68 79.3809 1264.38 87.0713 1264.38 96.8369C1264.38 100.906 1263.4 104.527 1261.45 107.701C1259.5 110.794 1256.28 112.34 1251.81 112.34C1247.01 112.34 1243.26 111.119 1240.58 108.678C1237.97 106.236 1236.67 103.51 1236.67 100.499C1236.67 96.8369 1237.16 93.0934 1238.14 89.2686C1239.11 85.3623 1239.68 82.514 1239.84 80.7236C1238.38 78.2008 1236.18 76.5326 1233.25 75.7188C1230.4 74.8236 1227.31 74.376 1223.98 74.376C1220.07 74.376 1216.33 75.2305 1212.75 76.9395C1209.25 78.5671 1205.83 81.6188 1202.49 86.0947C1199.48 90.1637 1197.04 95.6569 1195.17 102.574C1193.3 109.492 1192.36 117.752 1192.36 127.354C1192.36 142.491 1195.7 154.861 1202.37 164.464C1209.12 173.985 1217.95 178.746 1228.86 178.746C1236.75 178.746 1243.34 176.834 1248.63 173.009C1254 169.184 1258.97 163.447 1263.53 155.797L1271.34 160.924C1265.97 170.527 1258.89 178.136 1250.1 183.751C1241.31 189.366 1232.24 192.174 1222.88 192.174ZM1408.3 189H1371.92C1365.58 179.804 1358.78 169.957 1351.54 159.459C1344.3 148.961 1336.77 138.748 1328.96 128.819L1318.95 138.219V166.783C1318.95 169.713 1319.48 172.154 1320.53 174.107C1321.59 175.979 1323.3 177.363 1325.66 178.258C1327.61 179.072 1329.49 179.682 1331.28 180.089C1333.07 180.496 1335.14 180.781 1337.5 180.943V189H1278.42V180.943C1280.29 180.781 1282.24 180.618 1284.28 180.455C1286.31 180.211 1288.02 179.885 1289.41 179.479C1291.68 178.746 1293.39 177.485 1294.53 175.694C1295.67 173.823 1296.24 171.422 1296.24 168.492V28.5996C1296.24 25.5885 1295.59 22.7809 1294.29 20.1768C1293.07 17.4912 1291.44 15.4567 1289.41 14.0732C1287.7 12.7712 1285.01 11.9167 1281.35 11.5098C1277.77 11.1029 1274.88 10.818 1272.68 10.6553V2.84277L1317.24 0.0351562L1318.95 1.86621V129.186C1325.29 122.838 1332.13 116.043 1339.45 108.8C1346.86 101.476 1353.09 94.9652 1358.13 89.2686C1358.78 88.5361 1359.47 87.6003 1360.21 86.4609C1361.02 85.2402 1361.43 84.2637 1361.43 83.5312C1361.43 81.334 1359.64 79.7064 1356.06 78.6484C1352.56 77.5905 1349.18 76.8581 1345.92 76.4512V68.6387H1398.9V76.207C1392.07 78.2415 1386 80.805 1380.71 83.8975C1375.51 86.9085 1371.52 89.6348 1368.75 92.0762C1366.8 93.7038 1364.03 96.3486 1360.45 100.011C1356.87 103.673 1351.86 108.474 1345.44 114.415C1352.11 122.634 1359.6 132.481 1367.9 143.956C1376.28 155.431 1382.38 163.731 1386.21 168.858C1389.79 173.66 1393 176.793 1395.85 178.258C1398.7 179.723 1402.85 180.618 1408.3 180.943V189ZM1619 62.7793H1610.57C1609.84 59.8496 1608.5 56.391 1606.54 52.4033C1604.67 48.3343 1602.56 44.5094 1600.2 40.9287C1597.75 37.1852 1595.07 33.93 1592.14 31.1631C1589.29 28.3148 1586.52 26.6872 1583.84 26.2803C1581.32 25.9548 1578.14 25.7106 1574.32 25.5479C1570.49 25.3851 1566.95 25.3037 1563.7 25.3037H1556.62V163.854C1556.62 166.539 1557.19 169.021 1558.33 171.3C1559.47 173.497 1561.46 175.206 1564.31 176.427C1565.77 176.996 1568.82 177.77 1573.46 178.746C1578.18 179.723 1581.85 180.252 1584.45 180.333V189H1502.66V180.333C1504.94 180.17 1508.4 179.845 1513.04 179.356C1517.76 178.868 1521.01 178.258 1522.8 177.525C1525.49 176.467 1527.44 174.962 1528.66 173.009C1529.97 170.974 1530.62 168.289 1530.62 164.952V25.3037H1523.54C1521.01 25.3037 1517.88 25.3851 1514.14 25.5479C1510.39 25.6292 1506.81 25.8734 1503.39 26.2803C1500.71 26.6058 1497.9 28.2334 1494.97 31.1631C1492.12 34.0114 1489.48 37.2666 1487.04 40.9287C1484.6 44.5908 1482.44 48.4971 1480.57 52.6475C1478.7 56.7165 1477.39 60.0938 1476.66 62.7793H1468.12V15.7822H1619V62.7793ZM1747.17 127.599C1747.17 136.062 1745.83 144.404 1743.14 152.623C1740.46 160.761 1736.63 167.678 1731.67 173.375C1726.05 179.885 1719.54 184.728 1712.13 187.901C1704.73 191.075 1696.43 192.662 1687.23 192.662C1679.58 192.662 1672.3 191.238 1665.38 188.39C1658.46 185.46 1652.32 181.228 1646.95 175.694C1641.66 170.242 1637.43 163.609 1634.25 155.797C1631.16 147.903 1629.62 139.073 1629.62 129.308C1629.62 110.509 1635.07 95.1279 1645.97 83.165C1656.96 71.2021 1671.32 65.2207 1689.06 65.2207C1705.91 65.2207 1719.78 70.9173 1730.69 82.3105C1741.68 93.6224 1747.17 108.718 1747.17 127.599ZM1721.9 127.843C1721.9 121.739 1721.29 115.31 1720.07 108.556C1718.85 101.72 1717.02 95.9417 1714.58 91.2217C1711.97 86.1761 1708.55 82.1478 1704.32 79.1367C1700.09 76.0443 1694.92 74.498 1688.82 74.498C1682.55 74.498 1677.18 76.0443 1672.71 79.1367C1668.31 82.2292 1664.73 86.4609 1661.96 91.832C1659.36 96.7962 1657.53 102.452 1656.47 108.8C1655.41 115.147 1654.88 121.292 1654.88 127.232C1654.88 135.045 1655.49 142.288 1656.71 148.961C1658.02 155.553 1660.05 161.453 1662.82 166.661C1665.59 171.869 1669.04 175.979 1673.19 178.99C1677.43 181.92 1682.63 183.385 1688.82 183.385C1698.99 183.385 1707.05 178.461 1712.99 168.614C1718.93 158.767 1721.9 145.177 1721.9 127.843ZM1856.79 84.1416C1856.79 88.292 1855.77 91.9948 1853.74 95.25C1851.7 98.4238 1848.57 100.011 1844.34 100.011C1839.78 100.011 1836.28 98.8307 1833.84 96.4707C1831.48 94.1107 1830.3 91.5065 1830.3 88.6582C1830.3 86.8678 1830.42 85.2402 1830.67 83.7754C1830.99 82.3105 1831.28 80.8457 1831.52 79.3809C1827.69 79.3809 1823.22 80.9271 1818.09 84.0195C1812.96 87.112 1808.61 91.5065 1805.03 97.2031V167.271C1805.03 170.12 1805.56 172.439 1806.62 174.229C1807.76 176.02 1809.51 177.363 1811.87 178.258C1813.9 179.072 1816.5 179.682 1819.68 180.089C1822.93 180.496 1825.74 180.781 1828.1 180.943V189H1764.62V180.943C1766.5 180.781 1768.41 180.618 1770.36 180.455C1772.4 180.292 1774.15 179.967 1775.61 179.479C1777.89 178.746 1779.56 177.485 1780.62 175.694C1781.76 173.823 1782.33 171.422 1782.33 168.492V94.1514C1782.33 91.6286 1781.71 89.1465 1780.49 86.7051C1779.35 84.2637 1777.73 82.3105 1775.61 80.8457C1774.07 79.8691 1772.23 79.1774 1770.12 78.7705C1768 78.2822 1765.72 77.9567 1763.28 77.7939V69.8594L1803.32 67.1738L1805.03 68.8828V85.8506H1805.64C1810.69 79.2588 1816.3 74.2539 1822.49 70.8359C1828.67 67.418 1834.33 65.709 1839.45 65.709C1844.58 65.709 1848.73 67.3773 1851.91 70.7139C1855.16 74.0505 1856.79 78.5264 1856.79 84.1416ZM1922.83 192.174C1905.41 192.174 1891.78 186.396 1881.93 174.84C1872.09 163.284 1867.16 147.781 1867.16 128.331C1867.16 119.868 1868.47 111.974 1871.07 104.649C1873.76 97.2438 1877.62 90.5299 1882.67 84.5078C1887.47 78.7298 1893.49 74.0911 1900.73 70.5918C1907.98 67.0111 1915.87 65.2207 1924.42 65.2207C1936.22 65.2207 1945.82 68.069 1953.22 73.7656C1960.63 79.3809 1964.33 87.0713 1964.33 96.8369C1964.33 100.906 1963.36 104.527 1961.4 107.701C1959.45 110.794 1956.23 112.34 1951.76 112.34C1946.96 112.34 1943.21 111.119 1940.53 108.678C1937.92 106.236 1936.62 103.51 1936.62 100.499C1936.62 96.8369 1937.11 93.0934 1938.09 89.2686C1939.06 85.3623 1939.63 82.514 1939.8 80.7236C1938.33 78.2008 1936.13 76.5326 1933.2 75.7188C1930.36 74.8236 1927.26 74.376 1923.93 74.376C1920.02 74.376 1916.28 75.2305 1912.7 76.9395C1909.2 78.5671 1905.78 81.6188 1902.44 86.0947C1899.43 90.1637 1896.99 95.6569 1895.12 102.574C1893.25 109.492 1892.31 117.752 1892.31 127.354C1892.31 142.491 1895.65 154.861 1902.32 164.464C1909.07 173.985 1917.9 178.746 1928.81 178.746C1936.7 178.746 1943.3 176.834 1948.58 173.009C1953.96 169.184 1958.92 163.447 1963.48 155.797L1971.29 160.924C1965.92 170.527 1958.84 178.136 1950.05 183.751C1941.26 189.366 1932.19 192.174 1922.83 192.174ZM2111.43 189H2052.34V180.943C2054.22 180.781 2056.29 180.618 2058.57 180.455C2060.85 180.292 2062.72 179.967 2064.19 179.479C2066.46 178.746 2068.13 177.485 2069.19 175.694C2070.33 173.823 2070.9 171.422 2070.9 168.492V106.603C2070.9 98.0576 2068.86 91.4658 2064.8 86.8271C2060.81 82.1885 2055.93 79.8691 2050.15 79.8691C2045.92 79.8691 2041.97 80.5609 2038.31 81.9443C2034.73 83.2464 2031.51 84.874 2028.66 86.8271C2025.9 88.8617 2023.78 90.8962 2022.32 92.9307C2020.85 94.9652 2019.71 96.6742 2018.9 98.0576V167.271C2018.9 170.038 2019.43 172.317 2020.48 174.107C2021.62 175.898 2023.33 177.281 2025.61 178.258C2027.4 179.072 2029.23 179.682 2031.1 180.089C2033.06 180.496 2035.17 180.781 2037.45 180.943V189H1978.37V180.943C1980.24 180.781 1982.19 180.618 1984.23 180.455C1986.26 180.211 1987.97 179.885 1989.36 179.479C1991.64 178.746 1993.34 177.485 1994.48 175.694C1995.62 173.823 1996.19 171.422 1996.19 168.492V28.3555C1996.19 25.5885 1995.54 22.8216 1994.24 20.0547C1993.02 17.2878 1991.39 15.2126 1989.36 13.8291C1987.89 12.7712 1985.29 12.0387 1981.54 11.6318C1977.88 11.1436 1974.91 10.818 1972.63 10.6553V2.84277L2017.19 0.0351562L2018.9 1.86621V85.8506H2019.39C2022.07 83.165 2024.51 80.805 2026.71 78.7705C2028.91 76.6546 2031.8 74.4574 2035.38 72.1787C2038.47 70.2256 2042.09 68.598 2046.24 67.2959C2050.47 65.9938 2055.19 65.3428 2060.4 65.3428C2071.14 65.3428 2079.4 68.7607 2085.18 75.5967C2090.96 82.3512 2093.85 92.1169 2093.85 104.894V167.516C2093.85 170.364 2094.34 172.683 2095.31 174.474C2096.37 176.183 2098.08 177.525 2100.44 178.502C2102.31 179.234 2103.98 179.804 2105.45 180.211C2106.99 180.536 2108.99 180.781 2111.43 180.943V189Z" fill="#A98105"/>
</svg>
