<svg width="9555" height="1100" viewBox="0 0 9555 1100" fill="none" xmlns="http://www.w3.org/2000/svg">
<path d="M780 189.6C780 271.2 703.2 331.2 624 331.2C547.2 331.2 477.6 290.4 410.4 254.4L393.6 244.8C384 249.6 376.8 254.4 376.8 264L374.4 271.2C374.4 276 379.2 280.8 384 283.2C403.2 304.8 439.2 324 463.2 340.8C506.4 369.6 554.4 400.8 554.4 458.4C554.4 506.4 523.2 552 482.4 578.4L415.2 624L448.8 643.2C508.8 676.8 590.4 729.6 660 729.6C720 729.6 751.2 676.8 765.6 624L777.6 628.8C760.8 691.2 729.6 748.8 679.2 789.6C626.4 832.8 564 852 499.2 852C451.2 852 403.2 840 357.6 820.8C295.2 796.8 240 758.4 184.8 722.4C153.6 700.8 120 679.2 81.6 679.2C24 679.2 19.2 736.8 14.4 780H2.4C2.4 727.2 16.8 676.8 50.4 633.6C88.8 588 148.8 556.8 211.2 556.8C280.8 556.8 345.6 583.2 403.2 616.8C412.8 612 427.2 604.8 427.2 590.4C427.2 556.8 364.8 530.4 340.8 516C300 492 256.8 463.2 256.8 410.4C256.8 352.8 297.6 307.2 340.8 273.6L381.6 240L362.4 230.4C292.8 194.4 225.6 160.8 146.4 160.8C79.2 160.8 24 201.6 24 271.2C24 338.4 91.2 381.6 151.2 381.6C177.6 381.6 201.6 374.4 220.8 362.4L228 372C204 388.8 177.6 396 151.2 396C57.6 396 0 333.6 0 240C0 177.6 31.2 112.8 76.8 69.6004C129.6 19.2003 204 0.000352859 276 0.000352859C338.4 0.000352859 405.6 14.4004 460.8 45.6003C518.4 76.8004 571.2 117.6 619.2 158.4C643.2 180 686.4 220.8 720 220.8C744 220.8 760.8 204 760.8 182.4C760.8 115.2 681.6 81.6004 631.2 64.8004L636 50.4003C669.6 60.0004 703.2 72.0004 729.6 96.0003C756 117.6 780 151.2 780 189.6ZM1305.96 458.4C1305.96 544.8 1305.96 633.6 1298.76 720C1291.56 849.6 1248.36 921.6 1145.16 996C1089.96 1036.8 1029.96 1070.4 969.956 1099.2L962.756 1087.2C1010.76 1063.2 1065.96 1034.4 1089.96 984C1123.56 907.2 1128.36 804 1128.36 722.4V439.2C1128.36 410.4 1123.56 348 1082.76 348C1070.76 348 1061.16 352.8 1051.56 360L1029.96 379.2V679.2C1029.96 698.4 1034.76 736.8 1061.16 736.8C1070.76 736.8 1077.96 732 1085.16 727.2C1087.56 724.8 1092.36 724.8 1094.76 722.4L1097.16 732C1068.36 748.8 1041.96 770.4 1015.56 792C993.956 811.2 969.956 828 948.356 849.6C909.956 796.8 861.956 763.2 801.956 739.2V732C845.156 727.2 857.156 715.2 857.156 669.6V331.2C857.156 283.2 854.756 235.2 842.756 189.6C830.756 146.4 813.956 110.4 792.356 72.0004L785.156 57.6003L794.756 52.8004C818.756 91.2003 840.356 132 854.756 172.8C871.556 124.8 895.556 79.2003 943.556 52.8004C1003.56 21.6004 1075.56 12.0003 1142.76 12.0003H1161.96V28.8003H1142.76C1037.16 28.8003 1029.96 110.4 1029.96 196.8V360L1212.36 225.6L1241.16 261.6C1296.36 324 1305.96 374.4 1305.96 458.4ZM1826.37 679.2L1804.77 693.6L1667.97 792C1641.57 808.8 1619.97 830.4 1598.37 852C1540.77 825.6 1480.77 794.4 1439.97 744C1415.97 712.8 1406.37 674.4 1401.57 636C1396.77 595.2 1394.37 552 1394.37 511.2C1394.37 408 1394.37 348 1497.57 304.8L1684.77 223.2L1811.97 424.8L1555.17 585.6C1576.77 650.4 1639.17 712.8 1711.17 712.8C1751.97 712.8 1787.97 693.6 1821.57 669.6L1826.37 679.2ZM1665.57 494.4L1555.17 302.4C1550.37 331.2 1550.37 360 1550.37 391.2V487.2C1550.37 492 1547.97 504 1547.97 508.8C1547.97 520.8 1550.37 535.2 1550.37 547.2L1552.77 566.4L1665.57 494.4ZM3120.59 302.4C3065.39 307.2 3012.59 319.2 2962.19 338.4C3026.99 381.6 3096.59 429.6 3096.59 516C3096.59 616.8 3024.59 700.8 2945.39 756C2880.59 801.6 2784.59 852 2702.99 852C2626.19 852 2556.59 811.2 2501.39 763.2L2434.19 705.6C2410.19 686.4 2376.59 657.6 2342.99 657.6H2340.59C2290.19 662.4 2275.79 708 2270.99 751.2L2256.59 748.8C2261.39 703.2 2278.19 662.4 2309.39 628.8C2347.79 588 2402.99 559.2 2458.19 559.2H2482.19C2501.39 475.2 2503.79 386.4 2503.79 300C2503.79 237.6 2498.99 168 2462.99 115.2C2446.19 88.8004 2414.99 64.8004 2381.39 64.8004H2376.59C2340.59 69.6004 2297.39 93.6004 2297.39 132C2297.39 168 2330.99 189.6 2359.79 204C2405.39 232.8 2438.99 273.6 2438.99 331.2C2438.99 432 2354.99 508.8 2258.99 523.2L2256.59 511.2L2268.59 508.8C2302.19 501.6 2347.79 484.8 2350.19 444C2350.19 429.6 2342.99 420 2330.99 412.8L2306.99 396C2256.59 362.4 2225.39 309.6 2225.39 247.2C2225.39 192 2249.39 134.4 2290.19 96.0003C2340.59 48.0004 2412.59 19.2003 2482.19 19.2003C2534.99 19.2003 2585.39 28.8003 2628.59 57.6003C2659.79 76.8004 2681.39 103.2 2698.19 134.4C2702.99 108 2712.59 79.2003 2734.19 60.0004C2767.79 28.8003 2818.19 21.6004 2861.39 21.6004C2906.99 21.6004 2952.59 33.6003 2986.19 64.8004C3019.79 93.6004 3029.39 134.4 3031.79 175.2L3034.19 223.2C3036.59 271.2 3058.19 292.8 3106.19 292.8C3110.99 292.8 3115.79 292.8 3120.59 290.4V302.4ZM2993.39 314.4C2988.59 312 2981.39 312 2976.59 309.6C2935.79 300 2894.99 290.4 2866.19 256.8C2844.59 230.4 2839.79 194.4 2837.39 160.8C2834.99 124.8 2825.39 55.2004 2774.99 55.2004H2772.59C2734.19 60.0004 2710.19 110.4 2710.19 146.4C2710.19 160.8 2710.19 175.2 2712.59 189.6C2714.99 208.8 2714.99 230.4 2717.39 249.6V273.6C2717.39 314.4 2710.19 357.6 2698.19 393.6L2993.39 314.4ZM2971.79 662.4C2971.79 597.6 2921.39 535.2 2878.19 494.4C2830.19 448.8 2774.99 410.4 2707.79 398.4L2695.79 403.2C2669.39 448.8 2628.59 482.4 2582.99 508.8L2520.59 542.4C2510.99 547.2 2501.39 554.4 2494.19 559.2C2554.19 568.8 2606.99 595.2 2652.59 636L2702.99 681.6C2743.79 720 2806.19 770.4 2866.19 770.4C2926.19 770.4 2971.79 720 2971.79 662.4ZM3689.33 727.2C3684.53 729.6 3682.13 732 3679.73 732L3598.13 799.2C3578.93 816 3559.73 832.8 3545.33 852C3487.73 816 3446.93 777.6 3437.33 710.4C3415.73 727.2 3396.53 744 3377.33 760.8L3329.33 804C3312.53 818.4 3298.13 835.2 3281.33 852C3190.13 782.4 3170.93 748.8 3170.93 636V489.6C3170.93 388.8 3197.33 374.4 3286.13 338.4C3317.33 324 3348.53 312 3377.33 295.2C3403.73 280.8 3430.13 264 3454.13 247.2L3468.53 237.6C3492.53 264 3521.33 290.4 3552.53 312C3586.13 338.4 3626.93 352.8 3667.73 367.2V374.4L3658.13 376.8C3607.73 384 3602.93 400.8 3602.93 453.6V636C3602.93 660 3602.93 686.4 3614.93 710.4C3622.13 722.4 3634.13 736.8 3648.53 736.8C3660.53 734.4 3672.53 727.2 3682.13 720L3689.33 727.2ZM3437.33 693.6V405.6C3401.33 384 3370.13 355.2 3346.13 321.6L3338.93 324V619.2C3338.93 621.6 3336.53 628.8 3336.53 631.2C3336.53 664.8 3341.33 734.4 3377.33 734.4C3389.33 734.4 3401.33 724.8 3408.53 717.6L3425.33 703.2C3430.13 700.8 3432.53 696 3437.33 693.6ZM4200.15 482.4C4200.15 544.8 4200.15 614.4 4188.15 674.4C4178.55 710.4 4149.75 734.4 4113.75 746.4L4056.15 765.6C4003.35 782.4 3950.55 808.8 3914.55 852C3883.35 816 3844.95 787.2 3806.55 763.2C3772.95 739.2 3739.35 717.6 3703.35 703.2V696C3717.75 696 3729.75 696 3741.75 686.4C3758.55 674.4 3758.55 657.6 3758.55 638.4V249.6C3758.55 177.6 3739.35 112.8 3700.95 50.4003L3693.75 38.4004L3700.95 31.2004C3727.35 62.4003 3746.55 98.4004 3758.55 136.8C3777.75 98.4004 3806.55 69.6004 3847.35 50.4003C3900.15 24.0003 3957.75 14.4004 4015.35 14.4004C4032.15 14.4004 4048.95 16.8004 4065.75 16.8004V31.2004C4056.15 31.2004 4044.15 28.8003 4032.15 28.8003C4000.95 28.8003 3962.55 45.6003 3945.75 72.0004C3928.95 98.4004 3924.15 141.6 3924.15 175.2C3924.15 182.4 3926.55 192 3926.55 196.8V352.8L3986.55 314.4C4027.35 288 4068.15 261.6 4104.15 230.4C4108.95 235.2 4113.75 240 4116.15 244.8L4164.15 295.2C4185.75 316.8 4195.35 343.2 4197.75 372C4200.15 388.8 4200.15 410.4 4200.15 427.2V482.4ZM4029.75 741.6V417.6C4029.75 398.4 4029.75 379.2 4020.15 362.4C4012.95 350.4 4000.95 343.2 3988.95 343.2C3964.95 343.2 3945.75 357.6 3926.55 369.6V657.6L3936.15 664.8C3952.95 676.8 3969.75 691.2 3986.55 705.6L4008.15 724.8C4015.35 732 4022.55 736.8 4029.75 741.6ZM4711.25 693.6L4696.85 700.8C4624.85 744 4555.25 787.2 4490.45 840L4473.65 852C4466.45 847.2 4459.25 840 4449.65 835.2L4353.65 770.4C4322.45 746.4 4305.65 712.8 4298.45 676.8C4296.05 652.8 4291.25 621.6 4291.25 595.2C4291.25 578.4 4293.65 556.8 4293.65 540C4293.65 530.4 4291.25 516 4291.25 504C4291.25 463.2 4296.05 403.2 4305.65 374.4C4317.65 336 4348.85 316.8 4384.85 307.2L4612.85 232.8L4696.85 403.2C4672.85 417.6 4651.25 429.6 4627.25 439.2C4603.25 451.2 4579.25 465.6 4555.25 477.6L4548.05 463.2C4540.85 444 4533.65 424.8 4524.05 405.6L4497.65 345.6L4471.25 290.4L4459.25 292.8V547.2C4459.25 592.8 4471.25 640.8 4509.65 674.4C4536.05 698.4 4574.45 715.2 4610.45 715.2C4644.05 715.2 4677.65 700.8 4706.45 684L4711.25 693.6ZM5195.74 549.6C5195.74 592.8 5193.34 645.6 5183.74 676.8C5169.34 712.8 5138.14 732 5102.14 741.6C5030.14 760.8 4972.54 775.2 4941.34 852C4878.94 784.8 4797.34 739.2 4710.94 712.8V705.6C4751.74 696 4756.54 684 4756.54 643.2V321.6C4761.34 324 4768.54 324 4773.34 324C4778.14 324 4785.34 326.4 4790.14 326.4C4826.14 326.4 4866.94 316.8 4902.94 312C4967.74 297.6 5027.74 273.6 5075.74 225.6C5106.94 249.6 5138.14 276 5162.14 309.6C5178.94 331.2 5186.14 355.2 5188.54 384C5195.74 424.8 5195.74 468 5195.74 508.8V549.6ZM5025.34 724.8V511.2C5025.34 427.2 5018.14 343.2 4924.54 321.6V655.2L5025.34 724.8ZM5702.65 693.6L5688.25 700.8C5616.25 744 5546.65 787.2 5481.85 840L5465.05 852C5457.85 847.2 5450.65 840 5441.05 835.2L5345.05 770.4C5313.85 746.4 5297.05 712.8 5289.85 676.8C5287.45 652.8 5282.65 621.6 5282.65 595.2C5282.65 578.4 5285.05 556.8 5285.05 540C5285.05 530.4 5282.65 516 5282.65 504C5282.65 463.2 5287.45 403.2 5297.05 374.4C5309.05 336 5340.25 316.8 5376.25 307.2L5604.25 232.8L5688.25 403.2C5664.25 417.6 5642.65 429.6 5618.65 439.2C5594.65 451.2 5570.65 465.6 5546.65 477.6L5539.45 463.2C5532.25 444 5525.05 424.8 5515.45 405.6L5489.05 345.6L5462.65 290.4L5450.65 292.8V547.2C5450.65 592.8 5462.65 640.8 5501.05 674.4C5527.45 698.4 5565.85 715.2 5601.85 715.2C5635.45 715.2 5669.05 700.8 5697.85 684L5702.65 693.6ZM6309.54 714C6227.94 766.8 6193.14 808.8 6140.34 846C6029.94 782.4 6105.54 601.2 6003.54 529.2L5955.54 558V661.2C5955.54 687.6 5955.54 722.4 5981.94 722.4C5990.34 722.4 5999.94 720 6010.74 714V733.2C5947.14 766.8 5905.14 801.6 5871.54 846C5834.34 793.2 5783.94 748.8 5731.14 740.4V722.4C5773.14 722.4 5792.34 714 5792.34 672V278.4C5792.34 223.2 5749.14 112.8 5722.74 93.6004L5731.14 75.6004C5765.94 102 5783.94 146.4 5792.34 181.2C5792.34 64.8004 5955.54 33.6003 6047.94 33.6003H6079.14V51.6003C6003.54 51.6003 5955.54 93.6004 5955.54 146.4V373.2L6131.94 241.2C6184.74 267.6 6235.14 324 6235.14 355.2C6235.14 363.6 6227.94 370.8 6219.54 373.2L6131.94 434.4C6184.74 478.8 6201.54 513.6 6219.54 566.4C6232.74 601.2 6224.34 711.6 6274.74 711.6C6283.14 711.6 6296.34 703.2 6309.54 698.4V714ZM6098.34 442.8C6074.34 418.8 6050.34 363.6 6010.74 363.6C5995.14 363.6 5979.54 370.8 5955.54 392.4V540L6098.34 442.8ZM7460.86 189.6C7460.86 271.2 7384.06 331.2 7304.86 331.2C7228.06 331.2 7158.46 290.4 7091.26 254.4L7074.46 244.8C7064.86 249.6 7057.66 254.4 7057.66 264L7055.26 271.2C7055.26 276 7060.06 280.8 7064.86 283.2C7084.06 304.8 7120.06 324 7144.06 340.8C7187.26 369.6 7235.26 400.8 7235.26 458.4C7235.26 506.4 7204.06 552 7163.26 578.4L7096.06 624L7129.66 643.2C7189.66 676.8 7271.26 729.6 7340.86 729.6C7400.86 729.6 7432.06 676.8 7446.46 624L7458.46 628.8C7441.66 691.2 7410.46 748.8 7360.06 789.6C7307.26 832.8 7244.86 852 7180.06 852C7132.06 852 7084.06 840 7038.46 820.8C6976.06 796.8 6920.86 758.4 6865.66 722.4C6834.46 700.8 6800.86 679.2 6762.46 679.2C6704.86 679.2 6700.06 736.8 6695.26 780H6683.26C6683.26 727.2 6697.66 676.8 6731.26 633.6C6769.66 588 6829.66 556.8 6892.06 556.8C6961.66 556.8 7026.46 583.2 7084.06 616.8C7093.66 612 7108.06 604.8 7108.06 590.4C7108.06 556.8 7045.66 530.4 7021.66 516C6980.86 492 6937.66 463.2 6937.66 410.4C6937.66 352.8 6978.46 307.2 7021.66 273.6L7062.46 240L7043.26 230.4C6973.66 194.4 6906.46 160.8 6827.26 160.8C6760.06 160.8 6704.86 201.6 6704.86 271.2C6704.86 338.4 6772.06 381.6 6832.06 381.6C6858.46 381.6 6882.46 374.4 6901.66 362.4L6908.86 372C6884.86 388.8 6858.46 396 6832.06 396C6738.46 396 6680.86 333.6 6680.86 240C6680.86 177.6 6712.06 112.8 6757.66 69.6004C6810.46 19.2003 6884.86 0.000352859 6956.86 0.000352859C7019.26 0.000352859 7086.46 14.4004 7141.66 45.6003C7199.26 76.8004 7252.06 117.6 7300.06 158.4C7324.06 180 7367.26 220.8 7400.86 220.8C7424.86 220.8 7441.66 204 7441.66 182.4C7441.66 115.2 7362.46 81.6004 7312.06 64.8004L7316.86 50.4003C7350.46 60.0004 7384.06 72.0004 7410.46 96.0003C7436.86 117.6 7460.86 151.2 7460.86 189.6ZM7998.86 549.6C7998.86 592.8 7996.46 645.6 7986.86 676.8C7972.46 712.8 7941.26 732 7905.26 741.6C7833.26 760.8 7775.66 775.2 7744.46 852C7682.06 784.8 7600.46 739.2 7514.06 712.8V705.6C7554.86 696 7559.66 684 7559.66 643.2V321.6C7564.46 324 7571.66 324 7576.46 324C7581.26 324 7588.46 326.4 7593.26 326.4C7629.26 326.4 7670.06 316.8 7706.06 312C7770.86 297.6 7830.86 273.6 7878.86 225.6C7910.06 249.6 7941.26 276 7965.26 309.6C7982.06 331.2 7989.26 355.2 7991.66 384C7998.86 424.8 7998.86 468 7998.86 508.8V549.6ZM7828.46 724.8V511.2C7828.46 427.2 7821.26 343.2 7727.66 321.6V655.2L7828.46 724.8ZM8558.58 376.8L8436.18 499.2L8349.78 350.4L8313.78 386.4V616.8C8313.78 660 8337.78 712.8 8388.18 712.8C8421.78 712.8 8452.98 681.6 8476.98 662.4L8486.58 652.8L8496.18 664.8C8467.38 688.8 8438.58 712.8 8409.78 734.4L8289.78 835.2L8272.98 852C8212.98 787.2 8152.98 741.6 8071.38 717.6V705.6H8083.38C8131.38 705.6 8140.98 672 8140.98 628.8V446.4C8140.98 415.2 8138.58 355.2 8095.38 355.2C8080.98 355.2 8071.38 362.4 8061.78 369.6C8059.38 372 8054.58 374.4 8052.18 376.8L8042.58 367.2L8095.38 319.2C8114.58 304.8 8181.78 240 8196.18 230.4L8205.78 220.8C8272.98 252 8311.38 292.8 8313.78 367.2C8349.78 336 8385.78 304.8 8416.98 266.4L8445.78 232.8C8450.58 228 8455.38 225.6 8457.78 220.8L8558.58 376.8ZM9034.29 693.6L9019.89 700.8C8947.89 744 8878.29 787.2 8813.49 840L8796.69 852C8789.49 847.2 8782.29 840 8772.69 835.2L8676.69 770.4C8645.49 746.4 8628.69 712.8 8621.49 676.8C8619.09 652.8 8614.29 621.6 8614.29 595.2C8614.29 578.4 8616.69 556.8 8616.69 540C8616.69 530.4 8614.29 516 8614.29 504C8614.29 463.2 8619.09 403.2 8628.69 374.4C8640.69 336 8671.89 316.8 8707.89 307.2L8935.89 232.8L9019.89 403.2C8995.89 417.6 8974.29 429.6 8950.29 439.2C8926.29 451.2 8902.29 465.6 8878.29 477.6L8871.09 463.2C8863.89 444 8856.69 424.8 8847.09 405.6L8820.69 345.6L8794.29 290.4L8782.29 292.8V547.2C8782.29 592.8 8794.29 640.8 8832.69 674.4C8859.09 698.4 8897.49 715.2 8933.49 715.2C8967.09 715.2 9000.69 700.8 9029.49 684L9034.29 693.6ZM9554.78 458.4C9554.78 544.8 9554.78 633.6 9547.58 720C9540.38 849.6 9497.18 921.6 9393.98 996C9338.78 1036.8 9278.78 1070.4 9218.78 1099.2L9211.58 1087.2C9259.58 1063.2 9314.78 1034.4 9338.78 984C9372.38 907.2 9377.18 804 9377.18 722.4V439.2C9377.18 410.4 9372.38 348 9331.58 348C9319.58 348 9309.98 352.8 9300.38 360L9278.78 379.2V679.2C9278.78 698.4 9283.58 736.8 9309.98 736.8C9319.58 736.8 9326.78 732 9333.98 727.2C9336.38 724.8 9341.18 724.8 9343.58 722.4L9345.98 732C9317.18 748.8 9290.78 770.4 9264.38 792C9242.78 811.2 9218.78 828 9197.18 849.6C9158.78 796.8 9110.78 763.2 9050.78 739.2V732C9093.98 727.2 9105.98 715.2 9105.98 669.6V331.2C9105.98 283.2 9103.58 235.2 9091.58 189.6C9079.58 146.4 9062.78 110.4 9041.18 72.0004L9033.98 57.6003L9043.58 52.8004C9067.58 91.2003 9089.18 132 9103.58 172.8C9120.38 124.8 9144.38 79.2003 9192.38 52.8004C9252.38 21.6004 9324.38 12.0003 9391.58 12.0003H9410.78V28.8003H9391.58C9285.98 28.8003 9278.78 110.4 9278.78 196.8V360L9461.18 225.6L9489.98 261.6C9545.18 324 9554.78 374.4 9554.78 458.4Z" fill="black"/>
</svg>
