<svg width="1859" height="183" viewBox="0 0 1859 183" fill="none" xmlns="http://www.w3.org/2000/svg">
<path d="M73 141.5V29.75C73 22 73 21.75 65.5 21.75H49.25C38.5 21.75 24.75 22.25 18.5 28C12.5 33.5 10 39 7.25 45.25C5.25 46.75 1.75 45.5 0.75 43.5C4.75 32.25 8.5 16.25 10.25 6.24999C11 5.75 14.25 5.5 15 6.24999C16.5 14.25 24.75 14 36.25 14H140C153.75 14 157.75 12.5 158.5 10.5V6.99999L175.25 0.249992C176.25 0.249992 177.25 0.749985 177.75 1.74999C177.5 9.24999 177 21.75 177 32.75V85.25C177 87.5 177.25 89.5 178 90C187 83 199 77 211.75 77C235.5 77 244 91.75 244 109.25V151C244 169 244.5 171.75 253.5 172.75L260.25 173.5C262 174.75 261.5 179 259.75 179.75C250.75 179.25 243.5 179 234.75 179C225.75 179 218.25 179.25 211.5 179.75C209.75 179 209.25 174.75 211 173.5L216 172.75C225.25 171.25 225.5 169 225.5 151V115.25C225.5 99.25 217.75 88.5 201.75 88.5C193.25 88.5 186.75 91.5 182.25 95.25C177.75 99 177 100.25 177 109V151C177 169 177.5 171.5 186.5 172.75L191.75 173.5C193.5 174.5 193 179 191.25 179.75C183.75 179.25 176.5 179 167.75 179C158.75 179 151.25 179.25 143.25 179.75C141.5 179 141 174.75 142.75 173.5L149 172.75C158.25 171.75 158.5 169 158.5 151V39.25C158.5 23.5 152.75 21.75 123.5 21.75H100.75C93.25 21.75 93.5 22 93.5 30.25V141.5C93.5 167.75 94 171.5 108.5 172.75L116.5 173.5C118 174.5 117.5 179 116 179.75C101.75 179.25 93.25 179 83.25 179C73.25 179 64.5 179.25 48.5 179.75C47 179 46.5 174.75 48.5 173.5L57.5 172.75C71.75 171.5 73 167.75 73 141.5ZM344.107 115H297.857C291.357 115 291.107 115.5 291.107 121.75C291.107 147 305.857 168.5 332.607 168.5C340.857 168.5 347.857 166 355.607 156.25C358.107 155.5 359.857 157 360.107 159.25C351.857 176.25 333.857 182.5 320.857 182.5C304.607 182.5 291.857 175.5 284.607 166C277.107 156.25 274.107 144.5 274.107 133.5C274.107 102.75 294.357 77 324.357 77C345.857 77 359.857 91.75 359.857 106.75C359.857 110.25 359.357 112.25 358.857 113.25C358.107 114.75 354.607 115 344.107 115ZM295.607 107.5H313.357C331.857 107.5 337.357 106.5 339.357 105C340.107 104.5 340.857 103.5 340.857 100.25C340.857 93.25 336.107 84.5 321.607 84.5C306.857 84.5 294.107 98 293.857 106.25C293.857 106.75 293.857 107.5 295.607 107.5ZM458.979 141.5V46.5C458.979 28 457.979 23.25 446.729 22.25L438.729 21.5C436.729 20 436.979 16.25 438.979 15.25C452.479 14 469.479 13.25 492.729 13.25C508.479 13.25 523.479 14.5 534.729 20.25C545.479 25.5 553.729 35.5 553.729 51.5C553.729 69.5 543.229 78.75 528.229 85.75C528.229 88.25 530.229 89 532.979 89.5C546.479 92 566.479 104.5 566.479 131.25C566.479 160.25 544.979 179.75 499.979 179.75C492.729 179.75 480.479 179 469.979 179C458.979 179 450.479 179.5 441.229 179.75C439.729 179 439.229 175 440.729 173.5L445.229 172.75C458.479 170.5 458.979 167.75 458.979 141.5ZM479.479 100.75V137.75C479.479 146.75 479.979 159.5 484.729 165C489.479 170.75 496.979 172 504.479 172C526.729 172 543.729 162 543.729 137C543.729 117.25 533.729 94.25 493.979 94.25C480.479 94.25 479.479 95.75 479.479 100.75ZM479.479 29V79.75C479.479 86.75 479.729 87.25 492.479 86.75C517.979 85.75 531.729 78.25 531.729 54.75C531.729 30.25 513.479 21 494.479 21C488.979 21 485.229 21.5 482.979 22.5C480.479 23.25 479.479 24.5 479.479 29ZM604.916 138L634.666 127.25C638.416 126 638.916 123.75 638.916 120L639.166 108.5C639.416 99.25 636.416 86.75 620.916 86.75C613.916 86.75 605.416 90.25 604.916 98C604.666 102 604.416 105 602.416 106.5C598.666 109.5 591.916 111.25 588.166 111.25C585.916 111.25 584.666 110 584.666 107.75C584.666 94.75 612.916 77 631.166 77C649.166 77 657.916 87.5 657.166 106.25L655.666 149.75C655.166 161.25 657.416 171.5 667.166 171.5C669.666 171.5 671.916 170.75 673.416 170C674.666 169.25 675.916 168.25 676.666 168.25C677.666 168.25 678.416 169.75 678.416 171.5C678.416 172.75 669.666 182.5 657.416 182.5C651.416 182.5 645.416 180.25 641.166 174.75C640.166 173.25 638.666 171.25 637.166 171.25C635.416 171.25 632.416 173.5 627.416 176.25C621.916 179.25 616.416 182.5 609.416 182.5C602.166 182.5 596.166 180.5 591.916 176.75C587.166 172.5 584.166 166.25 584.166 159.25C584.166 149.5 588.916 143.75 604.916 138ZM603.416 156.25C603.416 160.5 606.416 171.25 619.166 171.25C624.166 171.25 631.916 167.5 634.416 165C637.416 162 637.416 158.5 637.666 153.25L638.166 138.5C638.166 135.75 637.166 135.25 635.666 135.25C634.166 135.25 629.916 136.25 625.416 137.75C610.666 142.75 603.416 146.5 603.416 156.25ZM695.24 157.25V38C695.24 23.25 694.99 21.75 687.49 17.25L684.99 15.75C683.74 15 683.74 11.5 684.99 10.75C690.74 8.49999 702.74 5.24999 712.24 0.249992C713.24 0.249992 714.24 0.749985 714.74 1.74999C714.24 10.5 713.74 21.75 713.74 32.75V80C713.74 84.25 714.74 85.25 716.24 85.25C722.74 81.5 732.74 77 744.99 77C773.49 77 792.74 98.5 792.74 126C792.74 159.25 768.74 182.5 735.24 182.5C725.99 182.5 718.99 180.75 713.99 179.25C708.74 177.5 705.49 176 703.49 176C701.49 176 699.49 178 698.24 179.75C697.99 180 697.74 180 697.24 180C696.24 180 695.24 179.5 694.74 178.5C694.99 175 695.24 170.25 695.24 157.25ZM713.74 106V145C713.74 153.75 715.74 161.5 719.99 166.75C724.24 172 730.99 175 738.99 175C762.49 175 771.74 155 771.74 133.5C771.74 107.75 758.49 87.75 733.74 87.75C726.24 87.75 720.24 89.5 716.74 91.75C714.24 93.5 713.74 96.25 713.74 106ZM870.99 77C876.74 77 886.49 78.25 893.24 81.25C895.24 83 896.99 87 896.99 91.25C896.99 95.75 894.49 100.5 891.49 100.5C890.24 100.5 888.99 100 887.99 98.75C882.49 92 873.24 85.5 862.99 85.5C845.49 85.5 828.49 99.25 828.49 125.75C828.49 145.25 841.99 168.5 868.74 168.5C883.24 168.5 890.74 162 896.49 153.5C898.49 153 900.74 154.75 900.99 157C892.49 175.5 873.74 182.5 859.24 182.5C845.99 182.5 833.74 178.25 824.99 169.75C816.24 161.25 810.49 149 810.49 132.75C810.49 105.75 829.49 77 870.99 77ZM963.588 77C991.588 77 1014.34 98 1014.34 128.75C1014.34 160 992.838 182.5 961.588 182.5C932.838 182.5 910.338 162.25 910.338 131C910.338 99.5 934.088 77 963.588 77ZM992.838 132.75C992.838 111.5 984.338 84.5 960.588 84.5C944.088 84.5 931.838 100.25 931.838 127.75C931.838 150.5 942.088 175 964.088 175C986.088 175 992.838 152 992.838 132.75ZM1092.67 77C1098.42 77 1108.17 78.25 1114.92 81.25C1116.92 83 1118.67 87 1118.67 91.25C1118.67 95.75 1116.17 100.5 1113.17 100.5C1111.92 100.5 1110.67 100 1109.67 98.75C1104.17 92 1094.92 85.5 1084.67 85.5C1067.17 85.5 1050.17 99.25 1050.17 125.75C1050.17 145.25 1063.67 168.5 1090.42 168.5C1104.92 168.5 1112.42 162 1118.17 153.5C1120.17 153 1122.42 154.75 1122.67 157C1114.17 175.5 1095.42 182.5 1080.92 182.5C1067.67 182.5 1055.42 178.25 1046.67 169.75C1037.92 161.25 1032.17 149 1032.17 132.75C1032.17 105.75 1051.17 77 1092.67 77ZM1145.27 151V38C1145.27 23.25 1145.02 21.75 1137.52 17.25L1135.02 15.75C1133.77 15 1133.77 11.5 1135.02 10.75C1141.27 8.74999 1153.02 4.99999 1162.02 0.249992C1163.02 0.249992 1164.02 0.749985 1164.52 1.74999C1164.27 9.24999 1163.77 21.75 1163.77 32.75V118.5C1163.77 121.75 1164.02 122.25 1168.27 122.25C1173.77 122.25 1178.52 119.5 1185.27 112.5L1195.52 101.5C1202.52 94 1204.27 91.25 1204.27 90C1204.27 88.75 1203.02 88 1198.77 87.5L1192.77 86.75C1190.52 86 1190.52 81.25 1192.77 80.5H1198.52C1209.52 80.5 1224.27 80 1238.27 78.5C1240.02 79.25 1240.27 83.5 1238.77 84.75L1230.77 86.25C1225.77 87.25 1221.52 89.75 1215.02 95C1205.27 102.75 1196.77 111.75 1192.27 116C1189.27 118.75 1189.02 120 1190.52 122C1194.77 127.75 1198.77 132.5 1207.27 142C1217.02 153 1225.77 162.75 1230.77 167.5C1234.27 170.75 1239.27 172.25 1243.77 173L1247.27 173.5C1249.02 174.75 1248.77 179 1246.77 179.75C1239.52 179.25 1231.02 179 1223.02 179C1213.02 179 1204.27 179.25 1197.02 179.75C1195.02 178.75 1194.77 174.5 1196.52 173.5L1201.02 172.75C1204.77 172.25 1207.27 171.75 1207.27 170.25C1207.27 168.75 1206.27 167 1203.02 163.25L1176.27 132.25C1174.02 129.75 1171.27 128.75 1168.52 128.75C1164.02 128.75 1163.77 129.5 1163.77 137.25V151C1163.77 169 1164.27 171.5 1173.27 172.75L1179.27 173.5C1181.02 174.75 1180.52 179 1178.77 179.75C1170.52 179.25 1163.27 179 1154.52 179C1145.52 179 1138.02 179.25 1130.52 179.75C1128.77 179 1128.27 174.75 1130.27 173.5L1135.77 172.75C1145.02 171.5 1145.27 169 1145.27 151ZM1387.14 30.25V141.5C1387.14 167.75 1387.64 171.5 1402.14 172.75L1410.14 173.5C1411.64 174.5 1411.14 179 1409.64 179.75C1395.39 179.25 1386.89 179 1376.89 179C1366.89 179 1358.14 179.25 1342.14 179.75C1340.64 179 1340.14 174.75 1342.14 173.5L1351.14 172.75C1365.39 171.5 1366.64 167.75 1366.64 141.5V29.75C1366.64 22 1366.64 21.75 1359.14 21.75H1345.39C1334.64 21.75 1320.89 22.25 1314.64 28C1308.64 33.5 1306.14 39 1303.39 45.25C1301.39 46.75 1297.89 45.5 1296.89 43.5C1300.89 32.25 1304.64 16.25 1306.39 6.24999C1307.14 5.75 1310.39 5.5 1311.14 6.24999C1312.64 14.25 1320.89 14 1332.39 14H1433.64C1447.14 14 1449.39 13.5 1453.14 6.99999C1454.39 6.49999 1457.14 6.75 1457.64 7.74998C1454.89 18 1453.14 38.25 1453.89 45.75C1452.89 47.75 1448.64 47.75 1447.39 46.25C1446.64 40 1444.89 30.75 1441.14 28C1435.39 23.75 1425.89 21.75 1412.14 21.75H1394.39C1386.89 21.75 1387.14 22 1387.14 30.25ZM1492.15 77C1520.15 77 1542.9 98 1542.9 128.75C1542.9 160 1521.4 182.5 1490.15 182.5C1461.4 182.5 1438.9 162.25 1438.9 131C1438.9 99.5 1462.65 77 1492.15 77ZM1521.4 132.75C1521.4 111.5 1512.9 84.5 1489.15 84.5C1472.65 84.5 1460.4 100.25 1460.4 127.75C1460.4 150.5 1470.65 175 1492.65 175C1514.65 175 1521.4 152 1521.4 132.75ZM1576.23 151V107.25C1576.23 97.5 1576.23 96.25 1569.48 91.75L1567.23 90.25C1566.23 89.25 1566.23 86.5 1567.48 85.75C1573.23 83.75 1586.48 77.25 1592.73 73.5C1593.98 73.75 1594.73 74.25 1594.73 75.25V89.75C1594.73 91 1594.98 91.75 1595.48 92C1604.23 84.75 1613.73 77 1622.98 77C1629.23 77 1634.23 81 1634.23 87C1634.23 95.25 1627.48 98.5 1623.48 98.5C1620.98 98.5 1619.73 97.75 1617.98 96.75C1614.23 94.25 1610.48 92.75 1606.98 92.75C1602.98 92.75 1599.98 95 1597.98 97.75C1595.48 101.25 1594.73 108.5 1594.73 117V151C1594.73 169 1595.23 172 1604.73 172.75L1613.73 173.5C1615.48 174.75 1614.98 179 1613.23 179.75C1601.48 179.25 1594.23 179 1585.48 179C1576.48 179 1568.98 179.25 1562.48 179.75C1560.73 179 1560.23 174.75 1561.98 173.5L1566.73 172.75C1575.98 171.25 1576.23 169 1576.23 151ZM1702.78 77C1708.53 77 1718.28 78.25 1725.03 81.25C1727.03 83 1728.78 87 1728.78 91.25C1728.78 95.75 1726.28 100.5 1723.28 100.5C1722.03 100.5 1720.78 100 1719.78 98.75C1714.28 92 1705.03 85.5 1694.78 85.5C1677.28 85.5 1660.28 99.25 1660.28 125.75C1660.28 145.25 1673.78 168.5 1700.53 168.5C1715.03 168.5 1722.53 162 1728.28 153.5C1730.28 153 1732.53 154.75 1732.78 157C1724.28 175.5 1705.53 182.5 1691.03 182.5C1677.78 182.5 1665.53 178.25 1656.78 169.75C1648.03 161.25 1642.28 149 1642.28 132.75C1642.28 105.75 1661.28 77 1702.78 77ZM1755.38 151V38C1755.38 23.25 1755.13 21.75 1747.63 17.25L1745.13 15.75C1743.88 15 1743.88 11.5 1745.13 10.75C1751.38 8.74999 1763.13 4.99999 1772.13 0.249992C1773.13 0.249992 1774.13 0.749985 1774.63 1.74999C1774.38 9.24999 1773.88 21.75 1773.88 32.75V85.25C1773.88 87.5 1774.13 89.5 1774.88 90C1783.88 83 1795.88 77 1808.63 77C1832.38 77 1840.88 91.75 1840.88 109.25V151C1840.88 169 1841.38 171.75 1850.38 172.75L1857.13 173.5C1858.88 174.75 1858.38 179 1856.63 179.75C1847.63 179.25 1840.38 179 1831.63 179C1822.63 179 1815.13 179.25 1808.38 179.75C1806.63 179 1806.13 174.75 1807.88 173.5L1812.88 172.75C1822.13 171.25 1822.38 169 1822.38 151V115.25C1822.38 99.25 1814.63 88.5 1798.63 88.5C1790.13 88.5 1783.63 91.5 1779.13 95.25C1774.63 99 1773.88 100.25 1773.88 109V151C1773.88 169 1774.38 171.5 1783.38 172.75L1788.63 173.5C1790.38 174.5 1789.88 179 1788.13 179.75C1780.63 179.25 1773.38 179 1764.62 179C1755.63 179 1748.13 179.25 1740.13 179.75C1738.38 179 1737.88 174.75 1739.63 173.5L1745.88 172.75C1755.13 171.75 1755.38 169 1755.38 151Z" fill="#A98105"/>
</svg>
